<svg width="1367" height="771" viewBox="0 0 1367 771" fill="none" xmlns="http://www.w3.org/2000/svg">
<g clip-path="url(#clip0_145_287)">
<path d="M1388 -293.527H-178.815V797.865H1388V-293.527Z" fill="url(#paint0_linear_145_287)"/>
<g opacity="0.7">
<path d="M-65.4883 72.5441L-150.011 23.6588V-74.1116L-65.4883 -122.997L19.0342 -74.1116V23.6588L-65.4883 72.5441ZM-149.253 23.2799L-65.4883 71.7862L18.2762 23.2799V-73.3537L-65.4883 -121.86L-149.253 -73.3537V23.2799Z" fill="url(#paint1_linear_145_287)"/>
<path d="M777.083 72.5443L692.561 23.6591V-74.1113L777.083 -122.997L861.606 -74.1113V23.6591L777.083 72.5443ZM693.319 23.2802L777.083 71.7864L860.847 23.2802V-73.3534L777.083 -121.86L693.319 -73.3534V23.2802Z" fill="url(#paint2_linear_145_287)"/>
<path d="M945.749 72.5443L861.227 23.6591V-74.1113L945.749 -122.997L1030.27 -74.1113V23.6591L945.749 72.5443ZM861.985 23.2802L945.749 71.7864L1029.51 23.2802V-73.3534L945.749 -121.86L861.985 -73.3534V23.2802Z" fill="url(#paint3_linear_145_287)"/>
<path d="M1114.04 72.5446L1029.51 23.6593V-74.1111L1114.04 -122.996L1198.56 -74.1111V23.6593L1114.04 72.5446ZM1030.27 23.2804L1114.04 71.7867L1197.8 23.2804V-73.3532L1114.04 -121.859L1030.27 -73.3532V23.2804Z" fill="url(#paint4_linear_145_287)"/>
<path d="M1282.7 72.5446L1198.18 23.6593V-74.1111L1282.7 -122.996L1367.23 -74.1111V23.6593L1282.7 72.5446ZM1198.94 23.2804L1282.7 71.7867L1366.47 23.2804V-73.3532L1282.7 -121.859L1198.94 -73.3532V23.2804Z" fill="url(#paint5_linear_145_287)"/>
<path d="M1387.69 35.0281L1367.22 23.2805V-73.3531L1387.69 -85.1007V-86.2375L1366.84 -74.111H1366.47V23.6594L1387.69 35.786V35.0281Z" fill="url(#paint6_linear_145_287)"/>
<path d="M1029.89 218.442L945.369 169.557V71.7866L1029.89 22.9014L1114.41 71.7866V169.557L1029.89 218.442ZM946.127 169.178L1029.89 217.684L1113.66 169.178V72.5445L1029.89 24.0382L946.127 72.5445V169.178Z" fill="url(#paint7_linear_145_287)"/>
<path d="M1198.56 218.442L1114.04 169.557V71.7864L1198.56 22.9011L1283.08 71.7864V169.557L1198.56 218.442ZM1114.42 169.178L1198.18 217.684L1281.94 169.178V72.5443L1198.18 24.038L1114.42 72.5443V169.178Z" fill="url(#paint8_linear_145_287)"/>
<path d="M1387.69 205.558L1366.85 217.684L1283.08 169.178V72.5445L1366.85 24.0382L1387.69 35.7858V35.0279L1367.22 23.2803H1366.85L1282.7 71.7866H1282.32V169.557L1366.85 218.442L1387.69 206.695V205.558Z" fill="url(#paint9_linear_145_287)"/>
<path d="M1114.04 364.34L1029.51 315.454V218.063L1114.04 169.178L1198.56 218.063V315.833L1114.04 364.34ZM1030.27 315.076L1114.04 363.582L1197.8 315.076V218.063L1114.04 169.557L1030.27 218.442V315.076Z" fill="url(#paint10_linear_145_287)"/>
<path d="M1282.7 364.34L1198.18 315.454V218.063L1282.7 169.178L1367.23 218.063V315.833L1282.7 364.34ZM1198.94 315.076L1282.7 363.582L1366.47 315.076V218.063L1282.7 169.557L1198.94 218.063V315.076Z" fill="url(#paint11_linear_145_287)"/>
<path d="M1387.69 326.823L1367.22 315.075V218.442L1387.69 206.694V205.557L1366.85 217.684L1366.47 218.063V315.454L1387.69 327.581V326.823Z" fill="url(#paint12_linear_145_287)"/>
<path d="M18.6553 510.238L-65.8672 461.352V363.582L18.6553 314.697L103.178 363.582V461.352L18.6553 510.238ZM-65.1091 460.974L18.6553 509.48L102.42 460.974V363.961L18.6553 315.455L-65.1091 364.34V460.974Z" fill="url(#paint13_linear_145_287)"/>
<path d="M1198.56 510.238L1114.04 461.353V363.582L1198.56 314.697L1283.08 363.582V461.353L1198.56 510.238ZM1114.42 460.974L1198.18 509.48L1281.94 460.974V363.961L1198.18 315.455L1114.42 363.961V460.974Z" fill="url(#paint14_linear_145_287)"/>
<path d="M1387.69 497.732L1366.85 509.48L1283.08 460.973V364.34L1366.85 315.833L1387.69 327.581V326.823L1367.22 315.076H1366.85L1282.7 363.582L1282.32 363.961V461.352L1366.85 510.238L1387.69 498.49V497.732Z" fill="url(#paint15_linear_145_287)"/>
<path d="M-65.4883 656.135L-150.011 607.25V509.859L-65.4883 460.973L19.0342 509.859V607.629L-65.4883 656.135ZM-149.253 606.871L-65.4883 655.377L18.2762 606.871V509.859L-65.4883 461.352L-149.253 510.238V606.871Z" fill="url(#paint16_linear_145_287)"/>
<path d="M103.178 656.135L18.2764 607.25V509.859L102.799 460.974L187.7 509.859V607.629L103.178 656.135ZM19.0344 606.871L102.799 655.377L186.563 606.871V509.859L102.799 461.352L19.0344 509.859V606.871Z" fill="url(#paint17_linear_145_287)"/>
<path d="M271.465 656.135L186.942 607.25V509.859L271.465 460.974L355.987 509.859V607.629L271.465 656.135ZM187.7 606.871L271.465 655.377L355.229 606.871V509.859L271.465 461.352L187.7 509.859V606.871Z" fill="url(#paint18_linear_145_287)"/>
<path d="M440.131 656.135L355.608 607.25V509.859L440.131 460.974L524.653 509.859V607.629L440.131 656.135ZM356.366 606.871L440.131 655.377L523.895 606.871V509.859L440.131 461.352L356.366 509.859V606.871Z" fill="url(#paint19_linear_145_287)"/>
<path d="M1387.69 618.619L1367.22 606.872V510.238L1387.69 498.49V497.732L1366.85 509.48L1366.47 509.859V607.25L1387.69 619.756V618.619Z" fill="url(#paint20_linear_145_287)"/>
<path d="M18.6553 802.033L-65.8672 753.148V655.378L18.6553 606.492L103.178 655.378V753.148L18.6553 802.033ZM-65.1091 752.769L18.6553 801.275L102.42 752.769V655.757L18.6553 607.25L-65.1091 656.136V752.769Z" fill="url(#paint21_linear_145_287)"/>
<path d="M187.321 802.034L102.799 753.148V655.378L187.321 606.493L271.844 655.378V753.148L187.321 802.034ZM103.557 752.769L187.321 801.276L271.086 752.769V655.757L187.321 607.251L103.557 655.757V752.769Z" fill="url(#paint22_linear_145_287)"/>
<path d="M355.987 802.033L271.465 753.148V655.378L355.987 606.492L440.51 655.378V753.148L355.987 802.033ZM271.844 752.769L355.608 801.275L439.373 752.769V655.757L355.608 607.25L271.844 655.757V752.769Z" fill="url(#paint23_linear_145_287)"/>
<path d="M-149.253 856.603V802.033L-65.4883 753.527L18.2762 802.033V856.603H19.0342V801.654L-65.1092 752.769H-65.4883L-150.011 801.275V801.654V856.603H-149.253Z" fill="url(#paint24_linear_145_287)"/>
<path d="M19.0344 856.603V802.033L103.178 753.527L186.942 802.033V856.603H187.7V801.654L103.178 752.769L18.6554 801.275L18.2764 801.654V856.603H19.0344Z" fill="url(#paint25_linear_145_287)"/>
<path d="M187.7 856.603V802.033L271.465 753.527L355.608 802.033V856.603H356.366V801.654L271.844 752.769H271.465L187.321 801.275L186.942 801.654V856.603H187.7Z" fill="url(#paint26_linear_145_287)"/>
<path d="M356.366 856.603V802.033L440.131 753.527L523.895 802.033V856.603H524.653V801.654L440.131 752.769L355.608 801.275V801.654V856.603H356.366Z" fill="url(#paint27_linear_145_287)"/>
<path d="M1030.27 856.603V802.033L1114.04 753.527L1198.18 802.033V856.603H1198.94V801.654L1114.41 752.769H1114.04L1029.89 801.275L1029.51 801.654V856.603H1030.27Z" fill="url(#paint28_linear_145_287)"/>
<path d="M1198.94 856.603V802.033L1282.7 753.527L1366.47 802.033V856.603H1367.23V801.654L1283.08 752.769H1282.7L1198.18 801.275V801.654V856.603H1198.94Z" fill="url(#paint29_linear_145_287)"/>
<path d="M1115.93 104.755L1004.12 40.3331V-88.5117L1115.93 -152.934L1227.74 -88.5117V40.3331L1115.93 104.755ZM1007.91 38.0594L1115.93 100.208L1223.95 38.0594V-86.6169L1115.93 -148.766L1007.91 -86.6169V38.0594Z" fill="url(#paint30_linear_145_287)"/>
<path d="M1387.69 70.2706L1335.39 100.587L1227.74 38.0594V-86.6169L1335.39 -148.766L1387.69 -118.449V-122.997L1335.39 -153.313L1223.95 -88.5117V40.3331L1335.39 104.756L1387.69 74.8181V70.2706Z" fill="url(#paint31_linear_145_287)"/>
<path d="M-92.0198 294.991L-203.832 230.568V101.723L-92.0198 37.301L19.7925 101.723V230.568L-92.0198 294.991ZM-200.042 228.294L-92.0198 290.443L16.0022 228.294V103.618L-92.0198 41.4695L-200.042 103.618V228.294Z" fill="url(#paint32_linear_145_287)"/>
<path d="M127.435 294.991L15.623 230.568V101.723L127.435 37.301L239.248 101.723V230.568L127.435 294.991ZM19.7923 228.294L127.814 290.443L235.836 228.294V103.618L127.435 41.4695L19.4133 103.618V228.294H19.7923Z" fill="url(#paint33_linear_145_287)"/>
<path d="M1387.69 257.474L1337.28 228.295V103.618L1387.69 74.8177V70.2703L1333.49 101.345V230.568L1387.69 261.643V257.474Z" fill="url(#paint34_linear_145_287)"/>
<path d="M17.8972 485.226L-93.915 420.804V291.959L17.8972 227.537L129.709 291.959V420.804L17.8972 485.226ZM-90.1248 418.53L17.8972 480.679L125.919 418.53V293.854L17.8972 231.705L-90.1248 293.854V418.53Z" fill="url(#paint35_linear_145_287)"/>
<path d="M237.353 485.226L125.541 420.804V291.959L237.353 227.537L349.165 291.959V420.804L237.353 485.226ZM129.331 418.53L237.353 480.679L345.375 418.53V293.854L237.353 231.705L129.331 293.854V418.53Z" fill="url(#paint36_linear_145_287)"/>
<path d="M-92.0198 675.462L-203.832 611.04V482.195L-92.0198 417.772L19.7925 482.195V611.04L-92.0198 675.462ZM-200.042 608.766L-92.0198 670.915L16.0022 608.766V484.09L-92.0198 421.941L-200.042 484.09V608.766Z" fill="url(#paint37_linear_145_287)"/>
<path d="M127.435 675.462L15.623 611.04V482.195L127.435 417.772L239.248 482.195V611.04L127.435 675.462ZM19.7923 608.766L127.814 670.915L235.836 608.766V484.09L127.814 421.941L19.7923 484.09V608.766Z" fill="url(#paint38_linear_145_287)"/>
<g opacity="0.7">
<path d="M1225.85 675.462L1114.04 611.04V482.195L1225.85 417.772L1337.66 482.195V611.04L1225.85 675.462ZM1117.83 608.766L1225.85 670.915L1333.87 608.766V484.09L1225.85 421.941L1117.83 484.09V608.766Z" fill="url(#paint39_linear_145_287)"/>
</g>
<path d="M9.93768 856.602L-90.1248 799.001V674.325L17.8972 611.797L125.54 674.325V799.001L25.4777 856.602H33.0582L129.33 800.896V672.051L17.8972 607.629L-93.915 672.051V800.896L2.35719 856.602H9.93768Z" fill="url(#paint40_linear_145_287)"/>
<path d="M229.773 856.602L129.331 799.001V674.325L237.353 611.797L345.375 674.325V799.001L244.934 856.602H252.514L349.165 800.896V672.051L237.353 607.629L125.541 672.051V800.896L222.192 856.602H229.773Z" fill="url(#paint41_linear_145_287)"/>
<path opacity="0.7" d="M1108.35 856.602L1007.91 799.001V674.325L1115.93 611.797L1223.95 674.325V799.001L1123.51 856.602H1131.09L1227.74 800.896V672.051L1115.93 607.629L1004.12 672.051V800.896L1100.77 856.602H1108.35Z" fill="url(#paint42_linear_145_287)"/>
<path opacity="0.7" d="M1335.39 611.797L1387.69 642.114V637.566L1335.39 607.629L1223.95 672.051V800.896L1320.23 856.602H1327.81L1227.74 799.001V674.325L1335.39 611.797Z" fill="url(#paint43_linear_145_287)"/>
<path d="M18.6563 33.1329C23.9626 33.1329 28.1319 28.9643 28.1319 23.659C28.1319 18.3536 23.9626 14.1851 18.6563 14.1851C13.3499 14.1851 9.18066 18.3536 9.18066 23.659C9.18066 28.9643 13.729 33.1329 18.6563 33.1329Z" fill="url(#paint44_linear_145_287)"/>
<path d="M692.941 32.3749C697.869 32.3749 701.659 28.5853 701.659 23.6589C701.659 18.7325 697.869 14.943 692.941 14.943C688.014 14.943 684.224 18.7325 684.224 23.6589C684.224 28.2064 688.014 32.3749 692.941 32.3749Z" fill="url(#paint45_linear_145_287)"/>
<path d="M861.607 31.996C866.155 31.996 869.946 28.2064 869.946 23.6589C869.946 19.1114 866.155 15.3219 861.607 15.3219C857.059 15.3219 853.269 19.1114 853.269 23.6589C853.269 28.2064 856.68 31.996 861.607 31.996Z" fill="url(#paint46_linear_145_287)"/>
<path d="M945.75 77.4709C948.68 77.4709 951.056 75.0956 951.056 72.1655C951.056 69.2354 948.68 66.8601 945.75 66.8601C942.819 66.8601 940.443 69.2354 940.443 72.1655C940.443 75.0956 942.819 77.4709 945.75 77.4709Z" fill="url(#paint47_linear_145_287)"/>
<path d="M1282.7 81.2602C1287.63 81.2602 1291.8 77.0917 1291.8 72.1652C1291.8 67.2388 1287.63 63.0703 1282.7 63.0703C1277.78 63.0703 1273.61 67.2388 1273.61 72.1652C1273.61 77.0917 1277.78 81.2602 1282.7 81.2602Z" fill="url(#paint48_linear_145_287)"/>
<path d="M1198.56 34.27C1204.62 34.27 1209.17 29.3435 1209.17 23.6592C1209.17 17.9749 1204.25 13.0485 1198.56 13.0485C1192.5 13.0485 1187.95 17.9749 1187.95 23.6592C1187.95 29.3435 1192.5 34.27 1198.56 34.27Z" fill="url(#paint49_linear_145_287)"/>
<path d="M784.285 72.1653C784.285 68.3758 781.253 65.3441 777.463 65.3441C773.673 65.3441 770.641 68.3758 770.641 72.1653C770.641 75.9549 773.673 78.9865 777.463 78.9865C780.874 78.9865 784.285 75.9549 784.285 72.1653Z" fill="url(#paint50_linear_145_287)"/>
<path d="M1029.89 29.3433C1033.03 29.3433 1035.58 26.7983 1035.58 23.6589C1035.58 20.5196 1033.03 17.9746 1029.89 17.9746C1026.75 17.9746 1024.21 20.5196 1024.21 23.6589C1024.21 26.7983 1026.75 29.3433 1029.89 29.3433Z" fill="url(#paint51_linear_145_287)"/>
<path d="M1114.04 78.2286C1117.45 78.2286 1120.1 75.5759 1120.1 72.1653C1120.1 68.7547 1117.45 66.1021 1114.04 66.1021C1110.63 66.1021 1107.97 68.7547 1107.97 72.1653C1108.35 75.5759 1111 78.2286 1114.04 78.2286Z" fill="url(#paint52_linear_145_287)"/>
<path d="M1366.85 224.126C1370.2 224.126 1372.91 221.411 1372.91 218.063C1372.91 214.714 1370.2 212 1366.85 212C1363.5 212 1360.78 214.714 1360.78 218.063C1360.78 221.411 1363.5 224.126 1366.85 224.126Z" fill="url(#paint53_linear_145_287)"/>
<path d="M1282.7 161.599C1278.53 161.599 1274.74 165.009 1274.74 169.557C1274.74 173.725 1278.15 177.515 1282.7 177.515C1286.87 177.515 1290.66 174.104 1290.66 169.557C1290.66 165.009 1286.87 161.599 1282.7 161.599Z" fill="url(#paint54_linear_145_287)"/>
<path d="M1366.85 31.238C1371.03 31.238 1374.43 27.8447 1374.43 23.6589C1374.43 19.4731 1371.03 16.0798 1366.85 16.0798C1362.66 16.0798 1359.27 19.4731 1359.27 23.6589C1359.27 27.8447 1362.66 31.238 1366.85 31.238Z" fill="url(#paint55_linear_145_287)"/>
<path d="M97.4932 363.96C97.4932 366.992 100.146 369.645 103.179 369.645C106.211 369.645 108.864 366.992 108.864 363.96C108.864 360.929 106.211 358.276 103.179 358.276C100.146 358.655 97.4932 360.929 97.4932 363.96Z" fill="url(#paint56_linear_145_287)"/>
<path d="M945.751 160.462C940.824 160.462 936.654 164.63 936.654 169.557C936.654 174.483 940.824 178.652 945.751 178.652C950.678 178.652 954.847 174.483 954.847 169.557C954.847 164.63 950.678 160.462 945.751 160.462Z" fill="url(#paint57_linear_145_287)"/>
<path d="M1020.42 218.063C1020.42 223.368 1024.59 227.537 1029.89 227.537C1035.2 227.537 1039.37 223.368 1039.37 218.063C1039.37 212.757 1035.2 208.589 1029.89 208.589C1024.97 208.589 1020.42 212.757 1020.42 218.063Z" fill="url(#paint58_linear_145_287)"/>
<path d="M1114.04 369.645C1117.18 369.645 1119.72 367.1 1119.72 363.961C1119.72 360.821 1117.18 358.276 1114.04 358.276C1110.9 358.276 1108.35 360.821 1108.35 363.961C1108.35 367.1 1110.9 369.645 1114.04 369.645Z" fill="url(#paint59_linear_145_287)"/>
<path d="M1029.89 322.655C1033.87 322.655 1037.1 319.431 1037.1 315.455C1037.1 311.478 1033.87 308.255 1029.89 308.255C1025.92 308.255 1022.69 311.478 1022.69 315.455C1022.69 319.431 1025.92 322.655 1029.89 322.655Z" fill="url(#paint60_linear_145_287)"/>
<path d="M1114.04 177.515C1118.43 177.515 1122 173.952 1122 169.557C1122 165.162 1118.43 161.599 1114.04 161.599C1109.64 161.599 1106.08 165.162 1106.08 169.557C1106.08 173.952 1109.64 177.515 1114.04 177.515Z" fill="url(#paint61_linear_145_287)"/>
<path d="M1198.56 326.444C1204.63 326.444 1209.55 321.524 1209.55 315.454C1209.55 309.385 1204.63 304.465 1198.56 304.465C1192.49 304.465 1187.57 309.385 1187.57 315.454C1187.57 321.524 1192.49 326.444 1198.56 326.444Z" fill="url(#paint62_linear_145_287)"/>
<path d="M1282.7 370.403C1286.11 370.403 1289.15 367.75 1289.15 363.961C1289.15 360.171 1286.49 357.519 1282.7 357.519C1279.29 357.519 1276.26 360.171 1276.26 363.961C1276.26 367.75 1279.29 370.403 1282.7 370.403Z" fill="url(#paint63_linear_145_287)"/>
<path d="M1198.56 229.053C1204.62 229.053 1209.55 224.126 1209.55 218.063C1209.55 212 1204.62 207.073 1198.56 207.073C1192.5 207.073 1187.57 212 1187.57 218.063C1187.57 224.126 1192.5 229.053 1198.56 229.053Z" fill="url(#paint64_linear_145_287)"/>
<path d="M1366.85 320.381C1369.57 320.381 1371.77 318.176 1371.77 315.455C1371.77 312.734 1369.57 310.528 1366.85 310.528C1364.13 310.528 1361.92 312.734 1361.92 315.455C1361.92 318.176 1364.13 320.381 1366.85 320.381Z" fill="url(#paint65_linear_145_287)"/>
<path d="M18.6566 326.065C24.721 326.065 29.2693 321.139 29.2693 315.454C29.2693 309.391 24.342 304.844 18.6566 304.844C12.5922 304.844 8.04395 309.77 8.04395 315.454C8.04395 321.139 12.9713 326.065 18.6566 326.065Z" fill="url(#paint66_linear_145_287)"/>
<path d="M103.179 470.447C108.106 470.447 112.275 466.279 112.275 461.352C112.275 456.426 108.106 452.257 103.179 452.257C98.2513 452.257 94.082 456.426 94.082 461.352C94.082 466.279 97.8723 470.447 103.179 470.447Z" fill="url(#paint67_linear_145_287)"/>
<path d="M276.014 461.352C276.014 459.078 274.119 457.184 271.845 457.184C269.571 457.184 267.676 459.078 267.676 461.352C267.676 463.626 269.571 465.521 271.845 465.521C274.119 465.521 276.014 463.626 276.014 461.352Z" fill="url(#paint68_linear_145_287)"/>
<path d="M355.988 518.195C360.536 518.195 364.327 514.406 364.327 509.858C364.327 505.311 360.536 501.521 355.988 501.521C351.44 501.521 347.649 505.311 347.649 509.858C347.649 514.406 351.061 518.195 355.988 518.195Z" fill="url(#paint69_linear_145_287)"/>
<path d="M448.092 461.352C448.092 456.805 444.302 453.394 440.132 453.394C435.963 453.394 432.173 457.184 432.173 461.352C432.173 465.9 435.963 469.31 440.132 469.31C444.302 469.31 448.092 465.9 448.092 461.352Z" fill="url(#paint70_linear_145_287)"/>
<path d="M524.275 519.333C529.582 519.333 533.751 515.164 533.751 509.859C533.751 504.553 529.582 500.385 524.275 500.385C518.969 500.385 514.8 504.553 514.8 509.859C514.8 515.164 518.969 519.333 524.275 519.333Z" fill="url(#paint71_linear_145_287)"/>
<path d="M11.834 607.25C11.834 611.039 14.8662 614.45 19.0354 614.45C22.8257 614.45 26.2369 611.418 26.2369 607.25C26.2369 603.46 23.2047 600.05 19.0354 600.05C14.8662 600.05 11.834 603.46 11.834 607.25Z" fill="url(#paint72_linear_145_287)"/>
<path d="M23.5841 509.858C23.5841 507.206 21.31 504.932 18.6568 504.932C16.0036 504.932 13.7295 507.206 13.7295 509.858C13.7295 512.511 16.0036 514.785 18.6568 514.785C21.31 514.785 23.5841 512.511 23.5841 509.858Z" fill="url(#paint73_linear_145_287)"/>
<path d="M187.322 506.069C185.048 506.069 183.532 507.964 183.532 509.859C183.532 512.132 185.427 513.648 187.322 513.648C189.597 513.648 191.113 511.753 191.113 509.859C191.113 507.585 189.597 506.069 187.322 506.069Z" fill="url(#paint74_linear_145_287)"/>
<path d="M265.022 655.756C265.022 659.546 268.055 662.577 271.845 662.577C275.635 662.577 278.667 659.546 278.667 655.756C278.667 651.967 275.635 648.935 271.845 648.935C268.055 648.935 265.022 652.346 265.022 655.756Z" fill="url(#paint75_linear_145_287)"/>
<path d="M187.322 597.776C182.016 597.776 177.847 601.945 177.847 607.25C177.847 612.555 182.016 616.724 187.322 616.724C192.629 616.724 196.798 612.555 196.798 607.25C196.798 601.945 192.629 597.776 187.322 597.776Z" fill="url(#paint76_linear_145_287)"/>
<path d="M524.276 617.482C529.961 617.482 534.509 612.934 534.509 607.25C534.509 601.566 529.961 597.018 524.276 597.018C518.59 597.018 514.042 601.566 514.042 607.25C514.042 612.934 518.59 617.482 524.276 617.482Z" fill="url(#paint77_linear_145_287)"/>
<path d="M1114.04 650.83C1111.01 650.83 1108.73 653.104 1108.73 656.135C1108.73 659.167 1111.01 661.441 1114.04 661.441C1117.07 661.441 1119.35 659.167 1119.35 656.135C1119.35 653.104 1117.07 650.83 1114.04 650.83Z" fill="url(#paint78_linear_145_287)"/>
<path d="M1114.04 467.416C1117.45 467.416 1120.1 464.763 1120.1 461.352C1120.1 457.942 1117.45 455.289 1114.04 455.289C1110.63 455.289 1107.97 457.942 1107.97 461.352C1107.97 464.763 1111 467.416 1114.04 467.416Z" fill="url(#paint79_linear_145_287)"/>
<path d="M1198.56 498.111C1192.12 498.111 1186.81 503.416 1186.81 509.859C1186.81 516.301 1192.12 521.606 1198.56 521.606C1205 521.606 1210.31 516.301 1210.31 509.859C1210.31 503.416 1205 498.111 1198.56 498.111Z" fill="url(#paint80_linear_145_287)"/>
<path d="M1282.7 467.795C1286.11 467.795 1289.15 464.763 1289.15 461.352C1289.15 457.942 1286.11 454.91 1282.7 454.91C1279.29 454.91 1276.26 457.942 1276.26 461.352C1276.26 464.763 1279.29 467.795 1282.7 467.795Z" fill="url(#paint81_linear_145_287)"/>
<path d="M1366.85 519.711C1372.15 519.711 1376.32 515.543 1376.32 510.238C1376.32 504.932 1372.15 500.764 1366.85 500.764C1361.54 500.764 1357.37 504.932 1357.37 510.238C1357.37 515.164 1361.54 519.711 1366.85 519.711Z" fill="url(#paint82_linear_145_287)"/>
<path d="M1366.85 594.365C1359.65 594.365 1353.96 600.05 1353.96 607.25C1353.96 614.45 1359.65 620.134 1366.85 620.134C1374.05 620.134 1379.73 614.45 1379.73 607.25C1379.73 600.05 1374.05 594.365 1366.85 594.365Z" fill="url(#paint83_linear_145_287)"/>
<path d="M96.7354 655.756C96.7354 659.167 99.7676 662.199 103.179 662.199C106.59 662.199 109.622 659.167 109.622 655.756C109.622 652.346 106.59 649.314 103.179 649.314C99.3885 649.314 96.7354 652.346 96.7354 655.756Z" fill="url(#paint84_linear_145_287)"/>
<path d="M103.179 763.758C108.864 763.758 113.792 759.211 113.792 753.148C113.792 747.463 109.244 742.537 103.179 742.537C97.4937 742.537 92.5664 747.084 92.5664 753.148C92.5664 758.832 97.1147 763.758 103.179 763.758Z" fill="url(#paint85_linear_145_287)"/>
<path d="M355.989 618.24C362.059 618.24 366.981 613.319 366.981 607.25C366.981 601.18 362.059 596.26 355.989 596.26C349.918 596.26 344.997 601.18 344.997 607.25C344.997 613.319 349.918 618.24 355.989 618.24Z" fill="url(#paint86_linear_145_287)"/>
<path d="M440.131 659.925C442.434 659.925 444.3 658.059 444.3 655.756C444.3 653.454 442.434 651.588 440.131 651.588C437.829 651.588 435.962 653.454 435.962 655.756C435.962 658.059 437.829 659.925 440.131 659.925Z" fill="url(#paint87_linear_145_287)"/>
<path d="M440.132 765.274C446.83 765.274 452.26 759.845 452.26 753.148C452.26 746.45 446.83 741.021 440.132 741.021C433.433 741.021 428.003 746.45 428.003 753.148C428.003 759.845 433.433 765.274 440.132 765.274Z" fill="url(#paint88_linear_145_287)"/>
<path d="M1121.24 753.148C1121.24 749.359 1118.21 746.327 1114.42 746.327C1110.63 746.327 1107.59 749.359 1107.59 753.148C1107.59 756.938 1110.63 759.969 1114.42 759.969C1118.21 759.969 1121.24 756.938 1121.24 753.148Z" fill="url(#paint89_linear_145_287)"/>
<path d="M1282.7 664.851C1287.63 664.851 1291.8 660.683 1291.8 655.756C1291.8 650.83 1287.63 646.661 1282.7 646.661C1277.78 646.661 1273.61 650.83 1273.61 655.756C1273.61 661.062 1277.78 664.851 1282.7 664.851Z" fill="url(#paint90_linear_145_287)"/>
<path d="M1282.7 744.053C1277.78 744.053 1273.61 748.222 1273.61 753.148C1273.61 758.074 1277.78 762.243 1282.7 762.243C1287.63 762.243 1291.8 758.074 1291.8 753.148C1291.8 748.222 1287.63 744.053 1282.7 744.053Z" fill="url(#paint91_linear_145_287)"/>
<path d="M271.466 762.243C276.393 762.243 280.562 758.074 280.562 753.148C280.562 748.221 276.393 744.053 271.466 744.053C266.538 744.053 262.369 748.221 262.369 753.148C262.369 758.074 266.538 762.243 271.466 762.243Z" fill="url(#paint92_linear_145_287)"/>
</g>
<g opacity="0.2">
<g opacity="0.2">
<g opacity="0.2">
<path opacity="0.2" d="M1096.22 94.1446L992.749 34.6486V-84.7223H993.128L1096.22 -144.218H1096.6L1199.7 -84.7223V34.6486H1199.32L1096.22 94.1446ZM993.886 33.8907L1096.22 93.0077L1198.56 33.8907V-84.3433L1096.22 -143.46L993.886 -84.3433V33.8907Z" fill="url(#paint93_linear_145_287)"/>
</g>
<g opacity="0.2">
<path opacity="0.2" d="M1367.22 55.4914L1302.03 93.008L1199.7 33.8909V-84.3431L1302.03 -143.46L1367.22 -105.565V-106.701L1302.03 -144.218L1198.94 -84.7221H1198.56V34.6488L1301.65 94.1448H1302.03L1367.22 56.6283V55.4914Z" fill="url(#paint94_linear_145_287)"/>
</g>
<g opacity="0.2">
<path opacity="0.2" d="M1198.94 272.253L1095.46 212.757V93.3863H1095.84L1198.94 33.8904H1199.32L1302.41 93.3863V212.757H1302.03L1198.94 272.253ZM1096.6 211.999L1198.94 271.116L1301.27 211.999V93.7653L1198.94 34.6483L1096.6 93.7653V211.999Z" fill="url(#paint95_linear_145_287)"/>
</g>
<g opacity="0.2">
<path opacity="0.2" d="M1367.23 249.516L1302.41 212V93.7657L1367.23 56.6281V55.4912L1301.65 93.3867V212.758L1367.23 250.653V249.516Z" fill="url(#paint96_linear_145_287)"/>
</g>
<g opacity="0.2">
<path opacity="0.2" d="M67.9288 450.363L-35.5449 390.867V271.496H-35.1659L67.9288 212H68.3078L171.402 271.496V390.867H171.023L67.9288 450.363ZM-34.7869 390.109L67.5497 449.226L169.886 390.109V271.875L67.5497 212.758L-34.7869 271.875V390.109Z" fill="url(#paint97_linear_145_287)"/>
</g>
<g opacity="0.2">
<path opacity="0.2" d="M273.36 450.362L169.887 390.866V271.496H170.266L273.36 212H273.739L376.834 271.496V390.866H376.455L273.36 450.362ZM171.024 390.108L273.36 449.226L375.697 390.108V271.874L273.36 212.757L171.024 271.874V390.108Z" fill="url(#paint98_linear_145_287)"/>
</g>
<g opacity="0.2">
<path opacity="0.2" d="M-35.1659 628.472L-138.64 568.976V449.605H-138.261L-35.1659 390.109H-34.7869L68.3077 449.605V568.976H67.9287L-35.1659 628.472ZM-137.503 568.218L-35.1659 627.335L67.1707 568.218V449.984L-35.1659 390.867L-137.503 449.984V568.218Z" fill="url(#paint99_linear_145_287)"/>
</g>
<g opacity="0.2">
<path opacity="0.2" d="M170.646 628.471L67.1719 568.975V449.605H67.5509L170.646 390.109H171.025L274.119 449.605V568.975H273.74L170.646 628.471ZM68.3089 568.217L170.646 627.335L272.982 568.217V449.983L170.646 390.866L68.3089 449.983V568.217Z" fill="url(#paint100_linear_145_287)"/>
</g>
<g opacity="0.2">
<path opacity="0.2" d="M67.9288 806.58L-35.5449 747.084V627.713H-35.1659L67.9288 568.217H68.3078L171.402 627.713V747.084H171.023L67.9288 806.58ZM-34.7869 746.326L67.5497 805.443L169.886 746.326V628.092L67.5497 568.975L-34.7869 628.092V746.326Z" fill="url(#paint101_linear_145_287)"/>
</g>
<g opacity="0.2">
<path opacity="0.2" d="M273.36 806.58L169.887 747.084V627.714H170.266L273.36 568.218H273.739L376.834 627.714V747.084H376.455L273.36 806.58ZM171.024 746.326L273.36 805.444L375.697 746.326V628.092L273.36 568.975L171.024 628.092V746.326Z" fill="url(#paint102_linear_145_287)"/>
</g>
<g opacity="0.2">
<path opacity="0.2" d="M1096.22 806.58L992.749 747.084V627.713H993.128L1096.22 568.217H1096.6L1199.7 627.713V747.084H1199.32L1096.22 806.58ZM993.886 746.326L1096.22 805.443L1198.56 746.326V628.092L1096.22 568.975L993.886 628.092V746.326Z" fill="url(#paint103_linear_145_287)"/>
</g>
<g opacity="0.2">
<path opacity="0.2" d="M1367.22 767.927L1302.03 805.444L1199.7 746.326V628.092L1302.03 568.975L1367.22 606.871V605.734L1302.03 568.218L1198.94 627.714H1198.56V747.084L1301.65 806.58H1302.03L1367.22 769.064V767.927Z" fill="url(#paint104_linear_145_287)"/>
</g>
<g opacity="0.2">
<path opacity="0.2" d="M-137.503 840.686V806.201L-35.1661 747.084L67.1705 806.201V840.686H68.3076V805.822L-34.7871 746.326H-35.1661L-138.261 805.822V840.686H-137.503Z" fill="url(#paint105_linear_145_287)"/>
</g>
<g opacity="0.2">
<path opacity="0.2" d="M68.3089 840.686V806.201L170.646 747.084L272.982 806.201V840.686H274.119V805.822L171.025 746.327H170.646L67.5509 805.822H67.1719V840.686H68.3089Z" fill="url(#paint106_linear_145_287)"/>
</g>
<g opacity="0.2">
<path opacity="0.2" d="M274.119 840.686V806.201L376.455 747.084L478.792 806.201V840.686H479.55V805.822L376.455 746.326L273.36 805.822H272.981V840.686H274.119Z" fill="url(#paint107_linear_145_287)"/>
</g>
<g opacity="0.2">
<path opacity="0.2" d="M1096.6 840.686V806.201L1198.94 747.084L1301.65 806.201V840.686H1302.41V805.822L1199.32 746.326H1198.94L1095.84 805.822V840.686H1096.6Z" fill="url(#paint108_linear_145_287)"/>
</g>
<g opacity="0.2">
<path opacity="0.2" d="M1367.23 767.927L1301.65 805.823V840.686H1302.41V806.202L1367.23 769.064V767.927Z" fill="url(#paint109_linear_145_287)"/>
</g>
</g>
<g opacity="0.2">
<g opacity="0.2">
<path opacity="0.2" d="M-107.939 9.2587L-244.388 -69.564V-226.83L-107.939 -305.653L28.51 -226.83V-69.564L-107.939 9.2587ZM-239.839 -71.8377L-108.318 4.33228L23.2036 -71.8377V-224.178L-107.939 -299.969L-239.46 -223.799V-71.8377H-239.839Z" fill="url(#paint110_linear_145_287)"/>
</g>
<g opacity="0.2">
<path opacity="0.2" d="M25.857 241.558L-110.592 162.735V5.46892L25.857 -73.3538L162.306 5.46892V162.735L25.857 241.558ZM-105.664 160.083L25.857 236.253L157.379 160.083V8.12159L25.857 -68.0484L-105.664 8.12159V160.083Z" fill="url(#paint111_linear_145_287)"/>
</g>
<g opacity="0.2">
<path opacity="0.2" d="M-107.939 473.479L-244.388 394.656V237.39L-107.939 158.567L28.51 237.39V394.656L-107.939 473.479ZM-239.839 392.382L-107.939 468.173L23.5826 392.382V240.421L-107.939 164.251L-239.46 240.421V392.382H-239.839Z" fill="url(#paint112_linear_145_287)"/>
</g>
<g opacity="0.2">
<path opacity="0.2" d="M1367.23 236.632L1232.67 158.946L1096.22 237.769V395.035L1232.67 473.858L1367.23 396.172V236.632ZM1232.29 468.173L1100.77 392.382V240.421L1232.29 164.251L1363.82 240.421V392.382L1232.29 468.173Z" fill="url(#paint113_linear_145_287)"/>
</g>
<g opacity="0.2">
<path opacity="0.2" d="M25.857 705.778L-110.592 626.956V469.689L25.857 390.866L162.306 469.689V626.956L25.857 705.778ZM-105.664 624.303L25.857 700.473L157.379 624.303V472.342L25.857 396.172L-105.664 472.342V624.303Z" fill="url(#paint114_linear_145_287)"/>
</g>
<g opacity="0.2">
<path opacity="0.2" d="M1098.12 705.779L961.669 626.956V469.689L1098.12 390.867L1234.57 469.689V626.956L1098.12 705.779ZM966.596 624.303L1098.12 700.473L1229.64 624.303V472.342L1098.12 396.172L966.596 472.342V624.303Z" fill="url(#paint115_linear_145_287)"/>
</g>
<g opacity="0.2">
<path opacity="0.2" d="M1367.23 700.094L1366.47 700.473L1234.57 624.303V472.342L1366.47 396.172L1367.23 396.551V391.246L1366.47 390.867L1230.02 469.689V626.956L1366.47 705.779L1367.23 705.4V700.094Z" fill="url(#paint116_linear_145_287)"/>
</g>
<g opacity="0.2">
<path opacity="0.2" d="M-239.839 840.686V704.263L-107.939 628.472L23.5826 704.263V840.686H28.51V701.61L-107.939 623.166L-244.388 701.61V840.686H-239.839Z" fill="url(#paint117_linear_145_287)"/>
</g>
<g opacity="0.2">
<path opacity="0.2" d="M28.5103 840.686V704.263L160.032 628.472L291.553 704.263V840.686H296.481V701.61L160.032 623.166L23.583 701.61V840.686H28.5103Z" fill="url(#paint118_linear_145_287)"/>
</g>
<g opacity="0.2">
<path opacity="0.2" d="M296.48 840.686V704.263L428.002 628.472L559.902 704.263V840.686H564.45V701.61L428.002 623.166L291.553 701.61V840.686H296.48Z" fill="url(#paint119_linear_145_287)"/>
</g>
<g opacity="0.2">
<path opacity="0.2" d="M564.451 840.686V704.263L696.351 628.472L827.873 704.263V840.686H832.421V701.61L696.351 623.166L559.902 701.61V840.686H564.451Z" fill="url(#paint120_linear_145_287)"/>
</g>
<g opacity="0.2">
<path opacity="0.2" d="M832.421 840.686V704.263L964.322 628.472L1095.84 704.263V840.686H1100.77V701.61L964.322 623.166L827.873 701.61V840.686H832.421Z" fill="url(#paint121_linear_145_287)"/>
</g>
<g opacity="0.2">
<path opacity="0.2" d="M1367.22 840.686V700.852L1232.29 623.166L1095.84 701.61V840.686H1100.77V704.263L1232.29 628.472L1364.19 704.263V840.686H1367.22Z" fill="url(#paint122_linear_145_287)"/>
</g>
<g opacity="0.2">
<path opacity="0.2" d="M1367.23 700.094L1364.19 701.61V840.686H1367.23V700.094Z" fill="url(#paint123_linear_145_287)"/>
</g>
</g>
<g opacity="0.2">
<path opacity="0.2" d="M1096.22 100.586C1099.99 100.586 1103.05 97.5325 1103.05 93.7653C1103.05 89.998 1099.99 86.9441 1096.22 86.9441C1092.45 86.9441 1089.4 89.998 1089.4 93.7653C1089.4 97.5325 1092.45 100.586 1096.22 100.586Z" fill="url(#paint124_linear_145_287)"/>
<path opacity="0.2" d="M993.507 25.1746C988.579 25.1746 984.41 29.3431 984.41 34.2695C984.41 39.1959 988.579 43.3644 993.507 43.3644C998.434 43.3644 1002.6 39.1959 1002.6 34.2695C1002.6 29.3431 998.434 25.1746 993.507 25.1746Z" fill="url(#paint125_linear_145_287)"/>
<path opacity="0.2" d="M1198.94 47.9121C1206.47 47.9121 1212.58 41.8042 1212.58 34.2697C1212.58 26.7352 1206.47 20.6273 1198.94 20.6273C1191.4 20.6273 1185.29 26.7352 1185.29 34.2697C1185.29 41.8042 1191.4 47.9121 1198.94 47.9121Z" fill="url(#paint126_linear_145_287)"/>
<path opacity="0.2" d="M1302.03 101.345C1306.2 101.345 1309.61 97.9341 1309.61 93.7656C1309.61 89.5971 1306.2 86.1865 1302.03 86.1865C1297.86 86.1865 1294.45 89.5971 1294.45 93.7656C1294.07 97.9341 1297.86 101.345 1302.03 101.345Z" fill="url(#paint127_linear_145_287)"/>
<path opacity="0.2" d="M73.2347 212.379C73.2347 209.347 70.9606 207.073 67.9284 207.073C64.8962 207.073 62.6221 209.347 62.6221 212.379C62.6221 215.41 64.8962 217.684 67.9284 217.684C70.5816 217.684 73.2347 215.41 73.2347 212.379Z" fill="url(#paint128_linear_145_287)"/>
<path opacity="0.2" d="M170.644 282.106C176.296 282.106 180.877 277.525 180.877 271.875C180.877 266.224 176.296 261.643 170.644 261.643C164.992 261.643 160.41 266.224 160.41 271.875C160.41 277.525 164.992 282.106 170.644 282.106Z" fill="url(#paint129_linear_145_287)"/>
<path opacity="0.2" d="M283.215 212.378C283.215 207.073 278.667 202.526 273.361 202.526C268.054 202.526 263.506 207.073 263.506 212.378C263.506 217.684 268.054 222.231 273.361 222.231C279.046 222.231 283.215 217.684 283.215 212.378Z" fill="url(#paint130_linear_145_287)"/>
<path opacity="0.2" d="M376.455 283.622C382.944 283.622 388.205 278.363 388.205 271.875C388.205 265.387 382.944 260.127 376.455 260.127C369.966 260.127 364.705 265.387 364.705 271.875C364.705 278.363 369.966 283.622 376.455 283.622Z" fill="url(#paint131_linear_145_287)"/>
<path opacity="0.2" d="M59.5898 449.983C59.5898 454.531 63.3801 457.942 67.5494 457.942C72.0977 457.942 75.5089 454.152 75.5089 449.983C75.5089 445.815 71.7186 442.025 67.5494 442.025C63.3801 441.646 59.5898 445.436 59.5898 449.983Z" fill="url(#paint132_linear_145_287)"/>
<path opacity="0.2" d="M376.455 402.993C383.363 402.993 388.963 397.394 388.963 390.487C388.963 383.581 383.363 377.982 376.455 377.982C369.547 377.982 363.947 383.581 363.947 390.487C363.947 397.394 369.547 402.993 376.455 402.993Z" fill="url(#paint133_linear_145_287)"/>
<path opacity="0.2" d="M1096.22 443.541C1092.81 443.541 1089.78 446.194 1089.78 449.983C1089.78 453.394 1092.43 456.426 1096.22 456.426C1099.63 456.426 1102.67 453.773 1102.67 449.983C1102.67 446.194 1099.63 443.541 1096.22 443.541Z" fill="url(#paint134_linear_145_287)"/>
<path opacity="0.2" d="M1096.22 219.958C1100.41 219.958 1103.8 216.564 1103.8 212.379C1103.8 208.193 1100.41 204.8 1096.22 204.8C1092.04 204.8 1088.64 208.193 1088.64 212.379C1088.64 216.564 1092.04 219.958 1096.22 219.958Z" fill="url(#paint135_linear_145_287)"/>
<path opacity="0.2" d="M1198.94 286.275C1206.89 286.275 1213.34 279.828 1213.34 271.875C1213.34 263.922 1206.89 257.474 1198.94 257.474C1190.98 257.474 1184.54 263.922 1184.54 271.875C1184.54 279.828 1190.98 286.275 1198.94 286.275Z" fill="url(#paint136_linear_145_287)"/>
<path opacity="0.2" d="M1302.03 220.337C1306.2 220.337 1309.99 216.926 1309.99 212.378C1309.99 208.21 1306.58 204.42 1302.03 204.42C1297.86 204.42 1294.07 207.831 1294.07 212.378C1294.07 216.547 1297.48 220.337 1302.03 220.337Z" fill="url(#paint137_linear_145_287)"/>
<path opacity="0.2" d="M170.645 403.751C177.971 403.751 183.911 397.813 183.911 390.487C183.911 383.162 177.971 377.224 170.645 377.224C163.318 377.224 157.379 383.162 157.379 390.487C157.379 397.813 163.318 403.751 170.645 403.751Z" fill="url(#paint138_linear_145_287)"/>
<path opacity="0.2" d="M268.433 449.984C268.433 452.636 270.707 454.91 273.36 454.91C276.013 454.91 278.287 452.636 278.287 449.984C278.287 447.331 276.013 445.057 273.36 445.057C270.707 445.057 268.433 447.331 268.433 449.984Z" fill="url(#paint139_linear_145_287)"/>
<path opacity="0.2" d="M376.454 637.945C381.897 637.945 386.309 633.534 386.309 628.092C386.309 622.651 381.897 618.24 376.454 618.24C371.012 618.24 366.6 622.651 366.6 628.092C366.6 633.534 371.012 637.945 376.454 637.945Z" fill="url(#paint140_linear_145_287)"/>
<path opacity="0.2" d="M273.36 553.438C265.022 553.438 258.199 560.259 258.199 568.596C258.199 576.933 265.022 583.754 273.36 583.754C281.699 583.754 288.521 576.933 288.521 568.596C288.521 560.259 281.699 553.438 273.36 553.438Z" fill="url(#paint141_linear_145_287)"/>
<path opacity="0.2" d="M1104.94 568.596C1104.94 564.049 1101.15 559.88 1096.22 559.88C1091.67 559.88 1087.5 563.67 1087.5 568.596C1087.5 573.144 1091.3 577.312 1096.22 577.312C1101.15 576.933 1104.94 573.144 1104.94 568.596Z" fill="url(#paint142_linear_145_287)"/>
<path opacity="0.2" d="M1302.03 460.973C1308.1 460.973 1313.02 456.047 1313.02 449.983C1313.02 443.92 1308.1 438.994 1302.03 438.994C1295.97 438.994 1291.04 443.92 1291.04 449.983C1290.66 456.047 1295.97 460.973 1302.03 460.973Z" fill="url(#paint143_linear_145_287)"/>
<path opacity="0.2" d="M1302.03 557.607C1295.97 557.607 1291.04 562.533 1291.04 568.596C1291.04 574.66 1295.97 579.586 1302.03 579.586C1308.1 579.586 1313.03 574.66 1313.03 568.596C1313.03 562.533 1308.1 557.607 1302.03 557.607Z" fill="url(#paint144_linear_145_287)"/>
<path opacity="0.2" d="M67.9293 579.965C73.9937 579.965 79.3001 575.038 79.3001 568.596C79.3001 562.533 74.3727 557.228 67.9293 557.228C61.4859 557.228 56.5586 562.154 56.5586 568.596C56.5586 574.659 61.4859 579.965 67.9293 579.965Z" fill="url(#paint145_linear_145_287)"/>
<path opacity="0.2" d="M183.531 628.092C183.531 620.892 177.846 615.208 170.645 615.208C163.443 615.208 157.758 620.892 157.758 628.092C157.758 635.293 163.443 640.977 170.645 640.977C177.846 640.977 183.531 634.914 183.531 628.092Z" fill="url(#paint146_linear_145_287)"/>
<path opacity="0.2" d="M376.454 757.316C382.316 757.316 387.067 752.566 387.067 746.706C387.067 740.846 382.316 736.095 376.454 736.095C370.593 736.095 365.842 740.846 365.842 746.706C365.842 752.566 370.593 757.316 376.454 757.316Z" fill="url(#paint147_linear_145_287)"/>
<path opacity="0.2" d="M993.507 636.808C998.434 636.808 1002.22 633.019 1002.22 628.092C1002.22 623.166 998.434 619.376 993.507 619.376C988.579 619.376 984.789 623.166 984.789 628.092C984.789 633.019 988.579 636.808 993.507 636.808Z" fill="url(#paint148_linear_145_287)"/>
<path opacity="0.2" d="M1198.94 637.945C1204.38 637.945 1208.79 633.534 1208.79 628.092C1208.79 622.651 1204.38 618.24 1198.94 618.24C1193.5 618.24 1189.08 622.651 1189.08 628.092C1189.08 633.534 1193.5 637.945 1198.94 637.945Z" fill="url(#paint149_linear_145_287)"/>
<path opacity="0.2" d="M170.644 752.769C173.994 752.769 176.709 750.054 176.709 746.705C176.709 743.357 173.994 740.642 170.644 740.642C167.295 740.642 164.58 743.357 164.58 746.705C164.58 750.054 167.295 752.769 170.644 752.769Z" fill="url(#paint150_linear_145_287)"/>
<path opacity="0.2" d="M993.507 736.853C988.201 736.853 983.652 741.4 983.652 746.706C983.652 752.011 988.201 756.559 993.507 756.559C998.813 756.559 1003.36 752.011 1003.36 746.706C1003.36 741.4 998.813 736.853 993.507 736.853Z" fill="url(#paint151_linear_145_287)"/>
<path opacity="0.2" d="M1198.94 736.474C1193.25 736.474 1188.7 741.021 1188.7 746.705C1188.7 752.39 1193.25 756.937 1198.94 756.937C1204.62 756.937 1209.17 752.39 1209.17 746.705C1209.17 741.021 1204.62 736.474 1198.94 736.474Z" fill="url(#paint152_linear_145_287)"/>
</g>
</g>
</g>
<defs>
<linearGradient id="paint0_linear_145_287" x1="270.7" y1="-349.894" x2="995.272" y2="1074.36" gradientUnits="userSpaceOnUse">
<stop stop-color="white"/>
<stop offset="1" stop-color="#F0F7FC"/>
</linearGradient>
<linearGradient id="paint1_linear_145_287" x1="884.427" y1="1441.23" x2="24.0935" y2="112.638" gradientUnits="userSpaceOnUse">
<stop stop-color="#52BBE8"/>
<stop offset="0.196" stop-color="#69C3EB"/>
<stop offset="0.6037" stop-color="#A3D8F1"/>
<stop offset="1" stop-color="#E1EFF8"/>
</linearGradient>
<linearGradient id="paint2_linear_145_287" x1="1478.04" y1="1056.84" x2="617.711" y2="-271.757" gradientUnits="userSpaceOnUse">
<stop stop-color="#52BBE8"/>
<stop offset="0.196" stop-color="#69C3EB"/>
<stop offset="0.6037" stop-color="#A3D8F1"/>
<stop offset="1" stop-color="#E1EFF8"/>
</linearGradient>
<linearGradient id="paint3_linear_145_287" x1="1596.77" y1="979.958" x2="736.435" y2="-348.638" gradientUnits="userSpaceOnUse">
<stop stop-color="#52BBE8"/>
<stop offset="0.196" stop-color="#69C3EB"/>
<stop offset="0.6037" stop-color="#A3D8F1"/>
<stop offset="1" stop-color="#E1EFF8"/>
</linearGradient>
<linearGradient id="paint4_linear_145_287" x1="1715.49" y1="903.08" x2="855.158" y2="-425.517" gradientUnits="userSpaceOnUse">
<stop stop-color="#52BBE8"/>
<stop offset="0.196" stop-color="#69C3EB"/>
<stop offset="0.6037" stop-color="#A3D8F1"/>
<stop offset="1" stop-color="#E1EFF8"/>
</linearGradient>
<linearGradient id="paint5_linear_145_287" x1="1834.22" y1="826.2" x2="973.883" y2="-502.395" gradientUnits="userSpaceOnUse">
<stop stop-color="#52BBE8"/>
<stop offset="0.196" stop-color="#69C3EB"/>
<stop offset="0.6037" stop-color="#A3D8F1"/>
<stop offset="1" stop-color="#E1EFF8"/>
</linearGradient>
<linearGradient id="paint6_linear_145_287" x1="1903.51" y1="781.33" x2="1043.18" y2="-547.267" gradientUnits="userSpaceOnUse">
<stop stop-color="#52BBE8"/>
<stop offset="0.196" stop-color="#69C3EB"/>
<stop offset="0.6037" stop-color="#A3D8F1"/>
<stop offset="1" stop-color="#E1EFF8"/>
</linearGradient>
<linearGradient id="paint7_linear_145_287" x1="1589.54" y1="984.642" x2="729.204" y2="-343.955" gradientUnits="userSpaceOnUse">
<stop stop-color="#52BBE8"/>
<stop offset="0.196" stop-color="#69C3EB"/>
<stop offset="0.6037" stop-color="#A3D8F1"/>
<stop offset="1" stop-color="#E1EFF8"/>
</linearGradient>
<linearGradient id="paint8_linear_145_287" x1="1708.26" y1="907.763" x2="847.927" y2="-420.834" gradientUnits="userSpaceOnUse">
<stop stop-color="#52BBE8"/>
<stop offset="0.196" stop-color="#69C3EB"/>
<stop offset="0.6037" stop-color="#A3D8F1"/>
<stop offset="1" stop-color="#E1EFF8"/>
</linearGradient>
<linearGradient id="paint9_linear_145_287" x1="1812.88" y1="840.017" x2="952.549" y2="-488.583" gradientUnits="userSpaceOnUse">
<stop stop-color="#52BBE8"/>
<stop offset="0.196" stop-color="#69C3EB"/>
<stop offset="0.6037" stop-color="#A3D8F1"/>
<stop offset="1" stop-color="#E1EFF8"/>
</linearGradient>
<linearGradient id="paint10_linear_145_287" x1="1582.31" y1="989.322" x2="721.974" y2="-339.275" gradientUnits="userSpaceOnUse">
<stop stop-color="#52BBE8"/>
<stop offset="0.196" stop-color="#69C3EB"/>
<stop offset="0.6037" stop-color="#A3D8F1"/>
<stop offset="1" stop-color="#E1EFF8"/>
</linearGradient>
<linearGradient id="paint11_linear_145_287" x1="1701.03" y1="912.443" x2="840.699" y2="-416.153" gradientUnits="userSpaceOnUse">
<stop stop-color="#52BBE8"/>
<stop offset="0.196" stop-color="#69C3EB"/>
<stop offset="0.6037" stop-color="#A3D8F1"/>
<stop offset="1" stop-color="#E1EFF8"/>
</linearGradient>
<linearGradient id="paint12_linear_145_287" x1="1770.33" y1="867.574" x2="909.994" y2="-461.027" gradientUnits="userSpaceOnUse">
<stop stop-color="#52BBE8"/>
<stop offset="0.196" stop-color="#69C3EB"/>
<stop offset="0.6037" stop-color="#A3D8F1"/>
<stop offset="1" stop-color="#E1EFF8"/>
</linearGradient>
<linearGradient id="paint13_linear_145_287" x1="744.013" y1="1532.16" x2="-116.321" y2="203.564" gradientUnits="userSpaceOnUse">
<stop stop-color="#52BBE8"/>
<stop offset="0.196" stop-color="#69C3EB"/>
<stop offset="0.6037" stop-color="#A3D8F1"/>
<stop offset="1" stop-color="#E1EFF8"/>
</linearGradient>
<linearGradient id="paint14_linear_145_287" x1="1575.08" y1="994.006" x2="714.744" y2="-334.591" gradientUnits="userSpaceOnUse">
<stop stop-color="#52BBE8"/>
<stop offset="0.196" stop-color="#69C3EB"/>
<stop offset="0.6037" stop-color="#A3D8F1"/>
<stop offset="1" stop-color="#E1EFF8"/>
</linearGradient>
<linearGradient id="paint15_linear_145_287" x1="1679.7" y1="926.259" x2="819.365" y2="-402.341" gradientUnits="userSpaceOnUse">
<stop stop-color="#52BBE8"/>
<stop offset="0.196" stop-color="#69C3EB"/>
<stop offset="0.6037" stop-color="#A3D8F1"/>
<stop offset="1" stop-color="#E1EFF8"/>
</linearGradient>
<linearGradient id="paint16_linear_145_287" x1="618.062" y1="1613.72" x2="-242.273" y2="285.124" gradientUnits="userSpaceOnUse">
<stop stop-color="#52BBE8"/>
<stop offset="0.196" stop-color="#69C3EB"/>
<stop offset="0.6037" stop-color="#A3D8F1"/>
<stop offset="1" stop-color="#E1EFF8"/>
</linearGradient>
<linearGradient id="paint17_linear_145_287" x1="736.784" y1="1536.84" x2="-123.55" y2="208.246" gradientUnits="userSpaceOnUse">
<stop stop-color="#52BBE8"/>
<stop offset="0.196" stop-color="#69C3EB"/>
<stop offset="0.6037" stop-color="#A3D8F1"/>
<stop offset="1" stop-color="#E1EFF8"/>
</linearGradient>
<linearGradient id="paint18_linear_145_287" x1="855.507" y1="1459.96" x2="-4.82776" y2="131.366" gradientUnits="userSpaceOnUse">
<stop stop-color="#52BBE8"/>
<stop offset="0.196" stop-color="#69C3EB"/>
<stop offset="0.6037" stop-color="#A3D8F1"/>
<stop offset="1" stop-color="#E1EFF8"/>
</linearGradient>
<linearGradient id="paint19_linear_145_287" x1="974.231" y1="1383.08" x2="113.897" y2="54.487" gradientUnits="userSpaceOnUse">
<stop stop-color="#52BBE8"/>
<stop offset="0.196" stop-color="#69C3EB"/>
<stop offset="0.6037" stop-color="#A3D8F1"/>
<stop offset="1" stop-color="#E1EFF8"/>
</linearGradient>
<linearGradient id="paint20_linear_145_287" x1="1637.14" y1="953.817" x2="776.812" y2="-374.78" gradientUnits="userSpaceOnUse">
<stop stop-color="#52BBE8"/>
<stop offset="0.196" stop-color="#69C3EB"/>
<stop offset="0.6037" stop-color="#A3D8F1"/>
<stop offset="1" stop-color="#E1EFF8"/>
</linearGradient>
<linearGradient id="paint21_linear_145_287" x1="610.83" y1="1618.4" x2="-249.503" y2="289.809" gradientUnits="userSpaceOnUse">
<stop stop-color="#52BBE8"/>
<stop offset="0.196" stop-color="#69C3EB"/>
<stop offset="0.6037" stop-color="#A3D8F1"/>
<stop offset="1" stop-color="#E1EFF8"/>
</linearGradient>
<linearGradient id="paint22_linear_145_287" x1="729.553" y1="1541.52" x2="-130.781" y2="212.929" gradientUnits="userSpaceOnUse">
<stop stop-color="#52BBE8"/>
<stop offset="0.196" stop-color="#69C3EB"/>
<stop offset="0.6037" stop-color="#A3D8F1"/>
<stop offset="1" stop-color="#E1EFF8"/>
</linearGradient>
<linearGradient id="paint23_linear_145_287" x1="848.277" y1="1464.65" x2="-12.0568" y2="136.05" gradientUnits="userSpaceOnUse">
<stop stop-color="#52BBE8"/>
<stop offset="0.196" stop-color="#69C3EB"/>
<stop offset="0.6037" stop-color="#A3D8F1"/>
<stop offset="1" stop-color="#E1EFF8"/>
</linearGradient>
<linearGradient id="paint24_linear_145_287" x1="494.587" y1="1693.68" x2="-365.747" y2="365.08" gradientUnits="userSpaceOnUse">
<stop stop-color="#52BBE8"/>
<stop offset="0.196" stop-color="#69C3EB"/>
<stop offset="0.6037" stop-color="#A3D8F1"/>
<stop offset="1" stop-color="#E1EFF8"/>
</linearGradient>
<linearGradient id="paint25_linear_145_287" x1="613.309" y1="1616.8" x2="-247.027" y2="288.198" gradientUnits="userSpaceOnUse">
<stop stop-color="#52BBE8"/>
<stop offset="0.196" stop-color="#69C3EB"/>
<stop offset="0.6037" stop-color="#A3D8F1"/>
<stop offset="1" stop-color="#E1EFF8"/>
</linearGradient>
<linearGradient id="paint26_linear_145_287" x1="732.032" y1="1539.92" x2="-128.299" y2="211.328" gradientUnits="userSpaceOnUse">
<stop stop-color="#52BBE8"/>
<stop offset="0.196" stop-color="#69C3EB"/>
<stop offset="0.6037" stop-color="#A3D8F1"/>
<stop offset="1" stop-color="#E1EFF8"/>
</linearGradient>
<linearGradient id="paint27_linear_145_287" x1="850.756" y1="1463.04" x2="-9.57428" y2="134.448" gradientUnits="userSpaceOnUse">
<stop stop-color="#52BBE8"/>
<stop offset="0.196" stop-color="#69C3EB"/>
<stop offset="0.6037" stop-color="#A3D8F1"/>
<stop offset="1" stop-color="#E1EFF8"/>
</linearGradient>
<linearGradient id="paint28_linear_145_287" x1="1325.65" y1="1155.52" x2="465.317" y2="-173.075" gradientUnits="userSpaceOnUse">
<stop stop-color="#52BBE8"/>
<stop offset="0.196" stop-color="#69C3EB"/>
<stop offset="0.6037" stop-color="#A3D8F1"/>
<stop offset="1" stop-color="#E1EFF8"/>
</linearGradient>
<linearGradient id="paint29_linear_145_287" x1="1444.37" y1="1078.64" x2="584.043" y2="-249.951" gradientUnits="userSpaceOnUse">
<stop stop-color="#52BBE8"/>
<stop offset="0.196" stop-color="#69C3EB"/>
<stop offset="0.6037" stop-color="#A3D8F1"/>
<stop offset="1" stop-color="#E1EFF8"/>
</linearGradient>
<linearGradient id="paint30_linear_145_287" x1="1716.23" y1="902.603" x2="855.897" y2="-425.995" gradientUnits="userSpaceOnUse">
<stop stop-color="#52BBE8"/>
<stop offset="0.196" stop-color="#69C3EB"/>
<stop offset="0.6037" stop-color="#A3D8F1"/>
<stop offset="1" stop-color="#E1EFF8"/>
</linearGradient>
<linearGradient id="paint31_linear_145_287" x1="1857.83" y1="810.911" x2="997.494" y2="-517.686" gradientUnits="userSpaceOnUse">
<stop stop-color="#52BBE8"/>
<stop offset="0.196" stop-color="#69C3EB"/>
<stop offset="0.6037" stop-color="#A3D8F1"/>
<stop offset="1" stop-color="#E1EFF8"/>
</linearGradient>
<linearGradient id="paint32_linear_145_287" x1="778.435" y1="1509.88" x2="-81.9008" y2="181.277" gradientUnits="userSpaceOnUse">
<stop stop-color="#52BBE8"/>
<stop offset="0.196" stop-color="#69C3EB"/>
<stop offset="0.6037" stop-color="#A3D8F1"/>
<stop offset="1" stop-color="#E1EFF8"/>
</linearGradient>
<linearGradient id="paint33_linear_145_287" x1="933.164" y1="1409.68" x2="72.828" y2="81.0806" gradientUnits="userSpaceOnUse">
<stop stop-color="#52BBE8"/>
<stop offset="0.196" stop-color="#69C3EB"/>
<stop offset="0.6037" stop-color="#A3D8F1"/>
<stop offset="1" stop-color="#E1EFF8"/>
</linearGradient>
<linearGradient id="paint34_linear_145_287" x1="1809" y1="842.527" x2="948.668" y2="-486.069" gradientUnits="userSpaceOnUse">
<stop stop-color="#52BBE8"/>
<stop offset="0.196" stop-color="#69C3EB"/>
<stop offset="0.6037" stop-color="#A3D8F1"/>
<stop offset="1" stop-color="#E1EFF8"/>
</linearGradient>
<linearGradient id="paint35_linear_145_287" x1="769.01" y1="1515.97" x2="-91.3234" y2="187.378" gradientUnits="userSpaceOnUse">
<stop stop-color="#52BBE8"/>
<stop offset="0.196" stop-color="#69C3EB"/>
<stop offset="0.6037" stop-color="#A3D8F1"/>
<stop offset="1" stop-color="#E1EFF8"/>
</linearGradient>
<linearGradient id="paint36_linear_145_287" x1="923.74" y1="1415.78" x2="63.4066" y2="87.1823" gradientUnits="userSpaceOnUse">
<stop stop-color="#52BBE8"/>
<stop offset="0.196" stop-color="#69C3EB"/>
<stop offset="0.6037" stop-color="#A3D8F1"/>
<stop offset="1" stop-color="#E1EFF8"/>
</linearGradient>
<linearGradient id="paint37_linear_145_287" x1="604.86" y1="1622.27" x2="-255.475" y2="293.675" gradientUnits="userSpaceOnUse">
<stop stop-color="#52BBE8"/>
<stop offset="0.196" stop-color="#69C3EB"/>
<stop offset="0.6037" stop-color="#A3D8F1"/>
<stop offset="1" stop-color="#E1EFF8"/>
</linearGradient>
<linearGradient id="paint38_linear_145_287" x1="759.588" y1="1522.08" x2="-100.746" y2="193.479" gradientUnits="userSpaceOnUse">
<stop stop-color="#52BBE8"/>
<stop offset="0.196" stop-color="#69C3EB"/>
<stop offset="0.6037" stop-color="#A3D8F1"/>
<stop offset="1" stop-color="#E1EFF8"/>
</linearGradient>
<linearGradient id="paint39_linear_145_287" x1="1533.23" y1="1021.1" x2="672.901" y2="-307.494" gradientUnits="userSpaceOnUse">
<stop stop-color="#52BBE8"/>
<stop offset="0.196" stop-color="#69C3EB"/>
<stop offset="0.6037" stop-color="#A3D8F1"/>
<stop offset="1" stop-color="#E1EFF8"/>
</linearGradient>
<linearGradient id="paint40_linear_145_287" x1="595.436" y1="1628.37" x2="-264.897" y2="299.777" gradientUnits="userSpaceOnUse">
<stop stop-color="#52BBE8"/>
<stop offset="0.196" stop-color="#69C3EB"/>
<stop offset="0.6037" stop-color="#A3D8F1"/>
<stop offset="1" stop-color="#E1EFF8"/>
</linearGradient>
<linearGradient id="paint41_linear_145_287" x1="750.167" y1="1528.18" x2="-110.167" y2="199.581" gradientUnits="userSpaceOnUse">
<stop stop-color="#52BBE8"/>
<stop offset="0.196" stop-color="#69C3EB"/>
<stop offset="0.6037" stop-color="#A3D8F1"/>
<stop offset="1" stop-color="#E1EFF8"/>
</linearGradient>
<linearGradient id="paint42_linear_145_287" x1="1369.08" y1="1127.4" x2="508.749" y2="-201.199" gradientUnits="userSpaceOnUse">
<stop stop-color="#52BBE8"/>
<stop offset="0.196" stop-color="#69C3EB"/>
<stop offset="0.6037" stop-color="#A3D8F1"/>
<stop offset="1" stop-color="#E1EFF8"/>
</linearGradient>
<linearGradient id="paint43_linear_145_287" x1="1510.68" y1="1035.71" x2="650.345" y2="-292.89" gradientUnits="userSpaceOnUse">
<stop stop-color="#52BBE8"/>
<stop offset="0.196" stop-color="#69C3EB"/>
<stop offset="0.6037" stop-color="#A3D8F1"/>
<stop offset="1" stop-color="#E1EFF8"/>
</linearGradient>
<linearGradient id="paint44_linear_145_287" x1="921.6" y1="1417.19" x2="61.2553" y2="88.5777" gradientUnits="userSpaceOnUse">
<stop stop-color="#52BBE8"/>
<stop offset="0.196" stop-color="#69C3EB"/>
<stop offset="0.6037" stop-color="#A3D8F1"/>
<stop offset="1" stop-color="#E1EFF8"/>
</linearGradient>
<linearGradient id="paint45_linear_145_287" x1="1396.49" y1="1109.65" x2="536.159" y2="-218.948" gradientUnits="userSpaceOnUse">
<stop stop-color="#52BBE8"/>
<stop offset="0.196" stop-color="#69C3EB"/>
<stop offset="0.6037" stop-color="#A3D8F1"/>
<stop offset="1" stop-color="#E1EFF8"/>
</linearGradient>
<linearGradient id="paint46_linear_145_287" x1="1515.21" y1="1032.77" x2="654.883" y2="-295.827" gradientUnits="userSpaceOnUse">
<stop stop-color="#52BBE8"/>
<stop offset="0.196" stop-color="#69C3EB"/>
<stop offset="0.6037" stop-color="#A3D8F1"/>
<stop offset="1" stop-color="#E1EFF8"/>
</linearGradient>
<linearGradient id="paint47_linear_145_287" x1="1552.37" y1="1008.71" x2="692.037" y2="-319.887" gradientUnits="userSpaceOnUse">
<stop stop-color="#52BBE8"/>
<stop offset="0.196" stop-color="#69C3EB"/>
<stop offset="0.6037" stop-color="#A3D8F1"/>
<stop offset="1" stop-color="#E1EFF8"/>
</linearGradient>
<linearGradient id="paint48_linear_145_287" x1="1789.82" y1="854.946" x2="929.49" y2="-473.645" gradientUnits="userSpaceOnUse">
<stop stop-color="#52BBE8"/>
<stop offset="0.196" stop-color="#69C3EB"/>
<stop offset="0.6037" stop-color="#A3D8F1"/>
<stop offset="1" stop-color="#E1EFF8"/>
</linearGradient>
<linearGradient id="paint49_linear_145_287" x1="1752.66" y1="879.014" x2="892.33" y2="-449.583" gradientUnits="userSpaceOnUse">
<stop stop-color="#52BBE8"/>
<stop offset="0.196" stop-color="#69C3EB"/>
<stop offset="0.6037" stop-color="#A3D8F1"/>
<stop offset="1" stop-color="#E1EFF8"/>
</linearGradient>
<linearGradient id="paint50_linear_145_287" x1="1433.65" y1="1085.59" x2="573.313" y2="-243.007" gradientUnits="userSpaceOnUse">
<stop stop-color="#52BBE8"/>
<stop offset="0.196" stop-color="#69C3EB"/>
<stop offset="0.6037" stop-color="#A3D8F1"/>
<stop offset="1" stop-color="#E1EFF8"/>
</linearGradient>
<linearGradient id="paint51_linear_145_287" x1="1633.92" y1="955.884" x2="773.594" y2="-372.692" gradientUnits="userSpaceOnUse">
<stop stop-color="#52BBE8"/>
<stop offset="0.196" stop-color="#69C3EB"/>
<stop offset="0.6037" stop-color="#A3D8F1"/>
<stop offset="1" stop-color="#E1EFF8"/>
</linearGradient>
<linearGradient id="paint52_linear_145_287" x1="1671.1" y1="931.824" x2="810.772" y2="-396.773" gradientUnits="userSpaceOnUse">
<stop stop-color="#52BBE8"/>
<stop offset="0.196" stop-color="#69C3EB"/>
<stop offset="0.6037" stop-color="#A3D8F1"/>
<stop offset="1" stop-color="#E1EFF8"/>
</linearGradient>
<linearGradient id="paint53_linear_145_287" x1="1782.59" y1="859.632" x2="922.248" y2="-468.96" gradientUnits="userSpaceOnUse">
<stop stop-color="#52BBE8"/>
<stop offset="0.196" stop-color="#69C3EB"/>
<stop offset="0.6037" stop-color="#A3D8F1"/>
<stop offset="1" stop-color="#E1EFF8"/>
</linearGradient>
<linearGradient id="paint54_linear_145_287" x1="1745.42" y1="883.693" x2="885.091" y2="-444.891" gradientUnits="userSpaceOnUse">
<stop stop-color="#52BBE8"/>
<stop offset="0.196" stop-color="#69C3EB"/>
<stop offset="0.6037" stop-color="#A3D8F1"/>
<stop offset="1" stop-color="#E1EFF8"/>
</linearGradient>
<linearGradient id="paint55_linear_145_287" x1="1871.38" y1="802.137" x2="1011.04" y2="-526.459" gradientUnits="userSpaceOnUse">
<stop stop-color="#52BBE8"/>
<stop offset="0.196" stop-color="#69C3EB"/>
<stop offset="0.6037" stop-color="#A3D8F1"/>
<stop offset="1" stop-color="#E1EFF8"/>
</linearGradient>
<linearGradient id="paint56_linear_145_287" x1="825.57" y1="1479.35" x2="-34.7635" y2="150.754" gradientUnits="userSpaceOnUse">
<stop stop-color="#52BBE8"/>
<stop offset="0.196" stop-color="#69C3EB"/>
<stop offset="0.6037" stop-color="#A3D8F1"/>
<stop offset="1" stop-color="#E1EFF8"/>
</linearGradient>
<linearGradient id="paint57_linear_145_287" x1="1507.98" y1="1037.46" x2="647.647" y2="-291.143" gradientUnits="userSpaceOnUse">
<stop stop-color="#52BBE8"/>
<stop offset="0.196" stop-color="#69C3EB"/>
<stop offset="0.6037" stop-color="#A3D8F1"/>
<stop offset="1" stop-color="#E1EFF8"/>
</linearGradient>
<linearGradient id="paint58_linear_145_287" x1="1545.15" y1="1013.39" x2="684.809" y2="-315.212" gradientUnits="userSpaceOnUse">
<stop stop-color="#52BBE8"/>
<stop offset="0.196" stop-color="#69C3EB"/>
<stop offset="0.6037" stop-color="#A3D8F1"/>
<stop offset="1" stop-color="#E1EFF8"/>
</linearGradient>
<linearGradient id="paint59_linear_145_287" x1="1537.91" y1="1018.07" x2="677.581" y2="-310.524" gradientUnits="userSpaceOnUse">
<stop stop-color="#52BBE8"/>
<stop offset="0.196" stop-color="#69C3EB"/>
<stop offset="0.6037" stop-color="#A3D8F1"/>
<stop offset="1" stop-color="#E1EFF8"/>
</linearGradient>
<linearGradient id="paint60_linear_145_287" x1="1500.75" y1="1042.15" x2="640.4" y2="-286.462" gradientUnits="userSpaceOnUse">
<stop stop-color="#52BBE8"/>
<stop offset="0.196" stop-color="#69C3EB"/>
<stop offset="0.6037" stop-color="#A3D8F1"/>
<stop offset="1" stop-color="#E1EFF8"/>
</linearGradient>
<linearGradient id="paint61_linear_145_287" x1="1626.7" y1="960.574" x2="766.372" y2="-368.022" gradientUnits="userSpaceOnUse">
<stop stop-color="#52BBE8"/>
<stop offset="0.196" stop-color="#69C3EB"/>
<stop offset="0.6037" stop-color="#A3D8F1"/>
<stop offset="1" stop-color="#E1EFF8"/>
</linearGradient>
<linearGradient id="paint62_linear_145_287" x1="1619.47" y1="965.257" x2="759.142" y2="-363.337" gradientUnits="userSpaceOnUse">
<stop stop-color="#52BBE8"/>
<stop offset="0.196" stop-color="#69C3EB"/>
<stop offset="0.6037" stop-color="#A3D8F1"/>
<stop offset="1" stop-color="#E1EFF8"/>
</linearGradient>
<linearGradient id="paint63_linear_145_287" x1="1656.63" y1="941.184" x2="796.309" y2="-387.396" gradientUnits="userSpaceOnUse">
<stop stop-color="#52BBE8"/>
<stop offset="0.196" stop-color="#69C3EB"/>
<stop offset="0.6037" stop-color="#A3D8F1"/>
<stop offset="1" stop-color="#E1EFF8"/>
</linearGradient>
<linearGradient id="paint64_linear_145_287" x1="1663.87" y1="936.506" x2="803.539" y2="-392.086" gradientUnits="userSpaceOnUse">
<stop stop-color="#52BBE8"/>
<stop offset="0.196" stop-color="#69C3EB"/>
<stop offset="0.6037" stop-color="#A3D8F1"/>
<stop offset="1" stop-color="#E1EFF8"/>
</linearGradient>
<linearGradient id="paint65_linear_145_287" x1="1738.2" y1="888.388" x2="877.85" y2="-440.228" gradientUnits="userSpaceOnUse">
<stop stop-color="#52BBE8"/>
<stop offset="0.196" stop-color="#69C3EB"/>
<stop offset="0.6037" stop-color="#A3D8F1"/>
<stop offset="1" stop-color="#E1EFF8"/>
</linearGradient>
<linearGradient id="paint66_linear_145_287" x1="788.407" y1="1503.41" x2="-71.9263" y2="174.819" gradientUnits="userSpaceOnUse">
<stop stop-color="#52BBE8"/>
<stop offset="0.196" stop-color="#69C3EB"/>
<stop offset="0.6037" stop-color="#A3D8F1"/>
<stop offset="1" stop-color="#E1EFF8"/>
</linearGradient>
<linearGradient id="paint67_linear_145_287" x1="781.191" y1="1508.11" x2="-79.1586" y2="179.494" gradientUnits="userSpaceOnUse">
<stop stop-color="#52BBE8"/>
<stop offset="0.196" stop-color="#69C3EB"/>
<stop offset="0.6037" stop-color="#A3D8F1"/>
<stop offset="1" stop-color="#E1EFF8"/>
</linearGradient>
<linearGradient id="paint68_linear_145_287" x1="899.901" y1="1431.21" x2="39.5678" y2="102.622" gradientUnits="userSpaceOnUse">
<stop stop-color="#52BBE8"/>
<stop offset="0.196" stop-color="#69C3EB"/>
<stop offset="0.6037" stop-color="#A3D8F1"/>
<stop offset="1" stop-color="#E1EFF8"/>
</linearGradient>
<linearGradient id="paint69_linear_145_287" x1="937.06" y1="1407.14" x2="76.7398" y2="78.5594" gradientUnits="userSpaceOnUse">
<stop stop-color="#52BBE8"/>
<stop offset="0.196" stop-color="#69C3EB"/>
<stop offset="0.6037" stop-color="#A3D8F1"/>
<stop offset="1" stop-color="#E1EFF8"/>
</linearGradient>
<linearGradient id="paint70_linear_145_287" x1="1018.63" y1="1354.34" x2="158.295" y2="25.7374" gradientUnits="userSpaceOnUse">
<stop stop-color="#52BBE8"/>
<stop offset="0.196" stop-color="#69C3EB"/>
<stop offset="0.6037" stop-color="#A3D8F1"/>
<stop offset="1" stop-color="#E1EFF8"/>
</linearGradient>
<linearGradient id="paint71_linear_145_287" x1="1055.79" y1="1330.27" x2="195.454" y2="1.67522" gradientUnits="userSpaceOnUse">
<stop stop-color="#52BBE8"/>
<stop offset="0.196" stop-color="#69C3EB"/>
<stop offset="0.6037" stop-color="#A3D8F1"/>
<stop offset="1" stop-color="#E1EFF8"/>
</linearGradient>
<linearGradient id="paint72_linear_145_287" x1="655.223" y1="1589.65" x2="-205.11" y2="261.063" gradientUnits="userSpaceOnUse">
<stop stop-color="#52BBE8"/>
<stop offset="0.196" stop-color="#69C3EB"/>
<stop offset="0.6037" stop-color="#A3D8F1"/>
<stop offset="1" stop-color="#E1EFF8"/>
</linearGradient>
<linearGradient id="paint73_linear_145_287" x1="699.62" y1="1560.92" x2="-160.723" y2="232.316" gradientUnits="userSpaceOnUse">
<stop stop-color="#52BBE8"/>
<stop offset="0.196" stop-color="#69C3EB"/>
<stop offset="0.6037" stop-color="#A3D8F1"/>
<stop offset="1" stop-color="#E1EFF8"/>
</linearGradient>
<linearGradient id="paint74_linear_145_287" x1="818.344" y1="1484.03" x2="-41.9863" y2="155.432" gradientUnits="userSpaceOnUse">
<stop stop-color="#52BBE8"/>
<stop offset="0.196" stop-color="#69C3EB"/>
<stop offset="0.6037" stop-color="#A3D8F1"/>
<stop offset="1" stop-color="#E1EFF8"/>
</linearGradient>
<linearGradient id="paint75_linear_145_287" x1="811.112" y1="1488.71" x2="-49.2173" y2="160.116" gradientUnits="userSpaceOnUse">
<stop stop-color="#52BBE8"/>
<stop offset="0.196" stop-color="#69C3EB"/>
<stop offset="0.6037" stop-color="#A3D8F1"/>
<stop offset="1" stop-color="#E1EFF8"/>
</linearGradient>
<linearGradient id="paint76_linear_145_287" x1="773.95" y1="1512.78" x2="-86.3862" y2="184.18" gradientUnits="userSpaceOnUse">
<stop stop-color="#52BBE8"/>
<stop offset="0.196" stop-color="#69C3EB"/>
<stop offset="0.6037" stop-color="#A3D8F1"/>
<stop offset="1" stop-color="#E1EFF8"/>
</linearGradient>
<linearGradient id="paint77_linear_145_287" x1="1011.4" y1="1359.02" x2="151.058" y2="30.419" gradientUnits="userSpaceOnUse">
<stop stop-color="#52BBE8"/>
<stop offset="0.196" stop-color="#69C3EB"/>
<stop offset="0.6037" stop-color="#A3D8F1"/>
<stop offset="1" stop-color="#E1EFF8"/>
</linearGradient>
<linearGradient id="paint78_linear_145_287" x1="1404.74" y1="1104.32" x2="544.392" y2="-224.293" gradientUnits="userSpaceOnUse">
<stop stop-color="#52BBE8"/>
<stop offset="0.196" stop-color="#69C3EB"/>
<stop offset="0.6037" stop-color="#A3D8F1"/>
<stop offset="1" stop-color="#E1EFF8"/>
</linearGradient>
<linearGradient id="paint79_linear_145_287" x1="1493.52" y1="1046.81" x2="633.204" y2="-281.77" gradientUnits="userSpaceOnUse">
<stop stop-color="#52BBE8"/>
<stop offset="0.196" stop-color="#69C3EB"/>
<stop offset="0.6037" stop-color="#A3D8F1"/>
<stop offset="1" stop-color="#E1EFF8"/>
</linearGradient>
<linearGradient id="paint80_linear_145_287" x1="1530.69" y1="1022.76" x2="670.346" y2="-305.851" gradientUnits="userSpaceOnUse">
<stop stop-color="#52BBE8"/>
<stop offset="0.196" stop-color="#69C3EB"/>
<stop offset="0.6037" stop-color="#A3D8F1"/>
<stop offset="1" stop-color="#E1EFF8"/>
</linearGradient>
<linearGradient id="paint81_linear_145_287" x1="1612.24" y1="969.937" x2="751.908" y2="-358.65" gradientUnits="userSpaceOnUse">
<stop stop-color="#52BBE8"/>
<stop offset="0.196" stop-color="#69C3EB"/>
<stop offset="0.6037" stop-color="#A3D8F1"/>
<stop offset="1" stop-color="#E1EFF8"/>
</linearGradient>
<linearGradient id="paint82_linear_145_287" x1="1649.41" y1="945.87" x2="789.082" y2="-382.719" gradientUnits="userSpaceOnUse">
<stop stop-color="#52BBE8"/>
<stop offset="0.196" stop-color="#69C3EB"/>
<stop offset="0.6037" stop-color="#A3D8F1"/>
<stop offset="1" stop-color="#E1EFF8"/>
</linearGradient>
<linearGradient id="paint83_linear_145_287" x1="1605.02" y1="974.622" x2="744.683" y2="-353.979" gradientUnits="userSpaceOnUse">
<stop stop-color="#52BBE8"/>
<stop offset="0.196" stop-color="#69C3EB"/>
<stop offset="0.6037" stop-color="#A3D8F1"/>
<stop offset="1" stop-color="#E1EFF8"/>
</linearGradient>
<linearGradient id="paint84_linear_145_287" x1="692.386" y1="1565.59" x2="-167.944" y2="236.996" gradientUnits="userSpaceOnUse">
<stop stop-color="#52BBE8"/>
<stop offset="0.196" stop-color="#69C3EB"/>
<stop offset="0.6037" stop-color="#A3D8F1"/>
<stop offset="1" stop-color="#E1EFF8"/>
</linearGradient>
<linearGradient id="paint85_linear_145_287" x1="647.994" y1="1594.34" x2="-212.339" y2="265.744" gradientUnits="userSpaceOnUse">
<stop stop-color="#52BBE8"/>
<stop offset="0.196" stop-color="#69C3EB"/>
<stop offset="0.6037" stop-color="#A3D8F1"/>
<stop offset="1" stop-color="#E1EFF8"/>
</linearGradient>
<linearGradient id="paint86_linear_145_287" x1="892.673" y1="1435.89" x2="32.343" y2="107.3" gradientUnits="userSpaceOnUse">
<stop stop-color="#52BBE8"/>
<stop offset="0.196" stop-color="#69C3EB"/>
<stop offset="0.6037" stop-color="#A3D8F1"/>
<stop offset="1" stop-color="#E1EFF8"/>
</linearGradient>
<linearGradient id="paint87_linear_145_287" x1="929.829" y1="1411.83" x2="69.491" y2="83.2467" gradientUnits="userSpaceOnUse">
<stop stop-color="#52BBE8"/>
<stop offset="0.196" stop-color="#69C3EB"/>
<stop offset="0.6037" stop-color="#A3D8F1"/>
<stop offset="1" stop-color="#E1EFF8"/>
</linearGradient>
<linearGradient id="paint88_linear_145_287" x1="885.443" y1="1440.58" x2="25.1108" y2="111.982" gradientUnits="userSpaceOnUse">
<stop stop-color="#52BBE8"/>
<stop offset="0.196" stop-color="#69C3EB"/>
<stop offset="0.6037" stop-color="#A3D8F1"/>
<stop offset="1" stop-color="#E1EFF8"/>
</linearGradient>
<linearGradient id="paint89_linear_145_287" x1="1360.33" y1="1133.06" x2="499.999" y2="-195.529" gradientUnits="userSpaceOnUse">
<stop stop-color="#52BBE8"/>
<stop offset="0.196" stop-color="#69C3EB"/>
<stop offset="0.6037" stop-color="#A3D8F1"/>
<stop offset="1" stop-color="#E1EFF8"/>
</linearGradient>
<linearGradient id="paint90_linear_145_287" x1="1523.45" y1="1027.43" x2="663.135" y2="-301.151" gradientUnits="userSpaceOnUse">
<stop stop-color="#52BBE8"/>
<stop offset="0.196" stop-color="#69C3EB"/>
<stop offset="0.6037" stop-color="#A3D8F1"/>
<stop offset="1" stop-color="#E1EFF8"/>
</linearGradient>
<linearGradient id="paint91_linear_145_287" x1="1479.06" y1="1056.18" x2="618.72" y2="-272.416" gradientUnits="userSpaceOnUse">
<stop stop-color="#52BBE8"/>
<stop offset="0.196" stop-color="#69C3EB"/>
<stop offset="0.6037" stop-color="#A3D8F1"/>
<stop offset="1" stop-color="#E1EFF8"/>
</linearGradient>
<linearGradient id="paint92_linear_145_287" x1="766.721" y1="1517.47" x2="-93.6238" y2="188.861" gradientUnits="userSpaceOnUse">
<stop stop-color="#52BBE8"/>
<stop offset="0.196" stop-color="#69C3EB"/>
<stop offset="0.6037" stop-color="#A3D8F1"/>
<stop offset="1" stop-color="#E1EFF8"/>
</linearGradient>
<linearGradient id="paint93_linear_145_287" x1="1667.58" y1="856.873" x2="617.503" y2="-764.733" gradientUnits="userSpaceOnUse">
<stop stop-color="#52BBE8"/>
<stop offset="0.196" stop-color="#69C3EB"/>
<stop offset="0.6037" stop-color="#A3D8F1"/>
<stop offset="1" stop-color="#E1EFF8"/>
</linearGradient>
<linearGradient id="paint94_linear_145_287" x1="1804.06" y1="768.493" x2="753.988" y2="-853.115" gradientUnits="userSpaceOnUse">
<stop stop-color="#52BBE8"/>
<stop offset="0.196" stop-color="#69C3EB"/>
<stop offset="0.6037" stop-color="#A3D8F1"/>
<stop offset="1" stop-color="#E1EFF8"/>
</linearGradient>
<linearGradient id="paint95_linear_145_287" x1="1658.75" y1="862.588" x2="608.677" y2="-759.016" gradientUnits="userSpaceOnUse">
<stop stop-color="#52BBE8"/>
<stop offset="0.196" stop-color="#69C3EB"/>
<stop offset="0.6037" stop-color="#A3D8F1"/>
<stop offset="1" stop-color="#E1EFF8"/>
</linearGradient>
<linearGradient id="paint96_linear_145_287" x1="1762.62" y1="795.333" x2="712.54" y2="-826.278" gradientUnits="userSpaceOnUse">
<stop stop-color="#52BBE8"/>
<stop offset="0.196" stop-color="#69C3EB"/>
<stop offset="0.6037" stop-color="#A3D8F1"/>
<stop offset="1" stop-color="#E1EFF8"/>
</linearGradient>
<linearGradient id="paint97_linear_145_287" x1="780.485" y1="1431.31" x2="-269.59" y2="-190.298" gradientUnits="userSpaceOnUse">
<stop stop-color="#52BBE8"/>
<stop offset="0.196" stop-color="#69C3EB"/>
<stop offset="0.6037" stop-color="#A3D8F1"/>
<stop offset="1" stop-color="#E1EFF8"/>
</linearGradient>
<linearGradient id="paint98_linear_145_287" x1="925.392" y1="1337.48" x2="-124.681" y2="-284.132" gradientUnits="userSpaceOnUse">
<stop stop-color="#52BBE8"/>
<stop offset="0.196" stop-color="#69C3EB"/>
<stop offset="0.6037" stop-color="#A3D8F1"/>
<stop offset="1" stop-color="#E1EFF8"/>
</linearGradient>
<linearGradient id="paint99_linear_145_287" x1="626.754" y1="1530.86" x2="-423.322" y2="-90.7484" gradientUnits="userSpaceOnUse">
<stop stop-color="#52BBE8"/>
<stop offset="0.196" stop-color="#69C3EB"/>
<stop offset="0.6037" stop-color="#A3D8F1"/>
<stop offset="1" stop-color="#E1EFF8"/>
</linearGradient>
<linearGradient id="paint100_linear_145_287" x1="771.662" y1="1437.03" x2="-278.413" y2="-184.583" gradientUnits="userSpaceOnUse">
<stop stop-color="#52BBE8"/>
<stop offset="0.196" stop-color="#69C3EB"/>
<stop offset="0.6037" stop-color="#A3D8F1"/>
<stop offset="1" stop-color="#E1EFF8"/>
</linearGradient>
<linearGradient id="paint101_linear_145_287" x1="617.929" y1="1536.57" x2="-432.144" y2="-85.0331" gradientUnits="userSpaceOnUse">
<stop stop-color="#52BBE8"/>
<stop offset="0.196" stop-color="#69C3EB"/>
<stop offset="0.6037" stop-color="#A3D8F1"/>
<stop offset="1" stop-color="#E1EFF8"/>
</linearGradient>
<linearGradient id="paint102_linear_145_287" x1="762.835" y1="1442.74" x2="-287.237" y2="-178.868" gradientUnits="userSpaceOnUse">
<stop stop-color="#52BBE8"/>
<stop offset="0.196" stop-color="#69C3EB"/>
<stop offset="0.6037" stop-color="#A3D8F1"/>
<stop offset="1" stop-color="#E1EFF8"/>
</linearGradient>
<linearGradient id="paint103_linear_145_287" x1="1342.46" y1="1067.4" x2="292.391" y2="-554.207" gradientUnits="userSpaceOnUse">
<stop stop-color="#52BBE8"/>
<stop offset="0.196" stop-color="#69C3EB"/>
<stop offset="0.6037" stop-color="#A3D8F1"/>
<stop offset="1" stop-color="#E1EFF8"/>
</linearGradient>
<linearGradient id="paint104_linear_145_287" x1="1478.95" y1="979.019" x2="428.877" y2="-642.589" gradientUnits="userSpaceOnUse">
<stop stop-color="#52BBE8"/>
<stop offset="0.196" stop-color="#69C3EB"/>
<stop offset="0.6037" stop-color="#A3D8F1"/>
<stop offset="1" stop-color="#E1EFF8"/>
</linearGradient>
<linearGradient id="paint105_linear_145_287" x1="483.465" y1="1623.64" x2="-566.608" y2="2.03491" gradientUnits="userSpaceOnUse">
<stop stop-color="#52BBE8"/>
<stop offset="0.196" stop-color="#69C3EB"/>
<stop offset="0.6037" stop-color="#A3D8F1"/>
<stop offset="1" stop-color="#E1EFF8"/>
</linearGradient>
<linearGradient id="paint106_linear_145_287" x1="628.372" y1="1529.81" x2="-421.7" y2="-91.8004" gradientUnits="userSpaceOnUse">
<stop stop-color="#52BBE8"/>
<stop offset="0.196" stop-color="#69C3EB"/>
<stop offset="0.6037" stop-color="#A3D8F1"/>
<stop offset="1" stop-color="#E1EFF8"/>
</linearGradient>
<linearGradient id="paint107_linear_145_287" x1="773.28" y1="1435.97" x2="-276.79" y2="-185.629" gradientUnits="userSpaceOnUse">
<stop stop-color="#52BBE8"/>
<stop offset="0.196" stop-color="#69C3EB"/>
<stop offset="0.6037" stop-color="#A3D8F1"/>
<stop offset="1" stop-color="#E1EFF8"/>
</linearGradient>
<linearGradient id="paint108_linear_145_287" x1="1352.91" y1="1060.64" x2="302.833" y2="-560.973" gradientUnits="userSpaceOnUse">
<stop stop-color="#52BBE8"/>
<stop offset="0.196" stop-color="#69C3EB"/>
<stop offset="0.6037" stop-color="#A3D8F1"/>
<stop offset="1" stop-color="#E1EFF8"/>
</linearGradient>
<linearGradient id="paint109_linear_145_287" x1="1456.77" y1="993.379" x2="406.711" y2="-628.211" gradientUnits="userSpaceOnUse">
<stop stop-color="#52BBE8"/>
<stop offset="0.196" stop-color="#69C3EB"/>
<stop offset="0.6037" stop-color="#A3D8F1"/>
<stop offset="1" stop-color="#E1EFF8"/>
</linearGradient>
<linearGradient id="paint110_linear_145_287" x1="875.267" y1="1369.94" x2="-174.807" y2="-251.672" gradientUnits="userSpaceOnUse">
<stop stop-color="#52BBE8"/>
<stop offset="0.196" stop-color="#69C3EB"/>
<stop offset="0.6037" stop-color="#A3D8F1"/>
<stop offset="1" stop-color="#E1EFF8"/>
</linearGradient>
<linearGradient id="paint111_linear_145_287" x1="863.766" y1="1377.38" x2="-186.307" y2="-244.226" gradientUnits="userSpaceOnUse">
<stop stop-color="#52BBE8"/>
<stop offset="0.196" stop-color="#69C3EB"/>
<stop offset="0.6037" stop-color="#A3D8F1"/>
<stop offset="1" stop-color="#E1EFF8"/>
</linearGradient>
<linearGradient id="paint112_linear_145_287" x1="663.411" y1="1507.12" x2="-386.662" y2="-114.486" gradientUnits="userSpaceOnUse">
<stop stop-color="#52BBE8"/>
<stop offset="0.196" stop-color="#69C3EB"/>
<stop offset="0.6037" stop-color="#A3D8F1"/>
<stop offset="1" stop-color="#E1EFF8"/>
</linearGradient>
<linearGradient id="paint113_linear_145_287" x1="1607.32" y1="895.895" x2="557.248" y2="-725.713" gradientUnits="userSpaceOnUse">
<stop stop-color="#52BBE8"/>
<stop offset="0.196" stop-color="#69C3EB"/>
<stop offset="0.6037" stop-color="#A3D8F1"/>
<stop offset="1" stop-color="#E1EFF8"/>
</linearGradient>
<linearGradient id="paint114_linear_145_287" x1="651.91" y1="1514.57" x2="-398.162" y2="-107.039" gradientUnits="userSpaceOnUse">
<stop stop-color="#52BBE8"/>
<stop offset="0.196" stop-color="#69C3EB"/>
<stop offset="0.6037" stop-color="#A3D8F1"/>
<stop offset="1" stop-color="#E1EFF8"/>
</linearGradient>
<linearGradient id="paint115_linear_145_287" x1="1407.33" y1="1025.4" x2="357.253" y2="-596.206" gradientUnits="userSpaceOnUse">
<stop stop-color="#52BBE8"/>
<stop offset="0.196" stop-color="#69C3EB"/>
<stop offset="0.6037" stop-color="#A3D8F1"/>
<stop offset="1" stop-color="#E1EFF8"/>
</linearGradient>
<linearGradient id="paint116_linear_145_287" x1="1566.26" y1="922.481" x2="516.185" y2="-699.126" gradientUnits="userSpaceOnUse">
<stop stop-color="#52BBE8"/>
<stop offset="0.196" stop-color="#69C3EB"/>
<stop offset="0.6037" stop-color="#A3D8F1"/>
<stop offset="1" stop-color="#E1EFF8"/>
</linearGradient>
<linearGradient id="paint117_linear_145_287" x1="455.791" y1="1641.57" x2="-594.283" y2="19.9576" gradientUnits="userSpaceOnUse">
<stop stop-color="#52BBE8"/>
<stop offset="0.196" stop-color="#69C3EB"/>
<stop offset="0.6037" stop-color="#A3D8F1"/>
<stop offset="1" stop-color="#E1EFF8"/>
</linearGradient>
<linearGradient id="paint118_linear_145_287" x1="644.644" y1="1519.27" x2="-405.428" y2="-102.333" gradientUnits="userSpaceOnUse">
<stop stop-color="#52BBE8"/>
<stop offset="0.196" stop-color="#69C3EB"/>
<stop offset="0.6037" stop-color="#A3D8F1"/>
<stop offset="1" stop-color="#E1EFF8"/>
</linearGradient>
<linearGradient id="paint119_linear_145_287" x1="833.498" y1="1396.98" x2="-216.576" y2="-224.627" gradientUnits="userSpaceOnUse">
<stop stop-color="#52BBE8"/>
<stop offset="0.196" stop-color="#69C3EB"/>
<stop offset="0.6037" stop-color="#A3D8F1"/>
<stop offset="1" stop-color="#E1EFF8"/>
</linearGradient>
<linearGradient id="paint120_linear_145_287" x1="1022.35" y1="1274.69" x2="-27.721" y2="-346.918" gradientUnits="userSpaceOnUse">
<stop stop-color="#52BBE8"/>
<stop offset="0.196" stop-color="#69C3EB"/>
<stop offset="0.6037" stop-color="#A3D8F1"/>
<stop offset="1" stop-color="#E1EFF8"/>
</linearGradient>
<linearGradient id="paint121_linear_145_287" x1="1211.21" y1="1152.4" x2="161.133" y2="-469.21" gradientUnits="userSpaceOnUse">
<stop stop-color="#52BBE8"/>
<stop offset="0.196" stop-color="#69C3EB"/>
<stop offset="0.6037" stop-color="#A3D8F1"/>
<stop offset="1" stop-color="#E1EFF8"/>
</linearGradient>
<linearGradient id="paint122_linear_145_287" x1="1399.7" y1="1030.34" x2="349.626" y2="-591.268" gradientUnits="userSpaceOnUse">
<stop stop-color="#52BBE8"/>
<stop offset="0.196" stop-color="#69C3EB"/>
<stop offset="0.6037" stop-color="#A3D8F1"/>
<stop offset="1" stop-color="#E1EFF8"/>
</linearGradient>
<linearGradient id="paint123_linear_145_287" x1="1494.31" y1="969.075" x2="444.257" y2="-652.565" gradientUnits="userSpaceOnUse">
<stop stop-color="#52BBE8"/>
<stop offset="0.196" stop-color="#69C3EB"/>
<stop offset="0.6037" stop-color="#A3D8F1"/>
<stop offset="1" stop-color="#E1EFF8"/>
</linearGradient>
<linearGradient id="paint124_linear_145_287" x1="1613.39" y1="891.968" x2="563.312" y2="-729.651" gradientUnits="userSpaceOnUse">
<stop stop-color="#52BBE8"/>
<stop offset="0.196" stop-color="#69C3EB"/>
<stop offset="0.6037" stop-color="#A3D8F1"/>
<stop offset="1" stop-color="#E1EFF8"/>
</linearGradient>
<linearGradient id="paint125_linear_145_287" x1="1568.04" y1="921.34" x2="517.961" y2="-700.282" gradientUnits="userSpaceOnUse">
<stop stop-color="#52BBE8"/>
<stop offset="0.196" stop-color="#69C3EB"/>
<stop offset="0.6037" stop-color="#A3D8F1"/>
<stop offset="1" stop-color="#E1EFF8"/>
</linearGradient>
<linearGradient id="paint126_linear_145_287" x1="1712.94" y1="827.504" x2="662.865" y2="-794.109" gradientUnits="userSpaceOnUse">
<stop stop-color="#52BBE8"/>
<stop offset="0.196" stop-color="#69C3EB"/>
<stop offset="0.6037" stop-color="#A3D8F1"/>
<stop offset="1" stop-color="#E1EFF8"/>
</linearGradient>
<linearGradient id="paint127_linear_145_287" x1="1758.3" y1="798.127" x2="708.228" y2="-823.484" gradientUnits="userSpaceOnUse">
<stop stop-color="#52BBE8"/>
<stop offset="0.196" stop-color="#69C3EB"/>
<stop offset="0.6037" stop-color="#A3D8F1"/>
<stop offset="1" stop-color="#E1EFF8"/>
</linearGradient>
<linearGradient id="paint128_linear_145_287" x1="834.677" y1="1396.23" x2="-215.395" y2="-225.392" gradientUnits="userSpaceOnUse">
<stop stop-color="#52BBE8"/>
<stop offset="0.196" stop-color="#69C3EB"/>
<stop offset="0.6037" stop-color="#A3D8F1"/>
<stop offset="1" stop-color="#E1EFF8"/>
</linearGradient>
<linearGradient id="paint129_linear_145_287" x1="880.028" y1="1366.84" x2="-170.034" y2="-254.755" gradientUnits="userSpaceOnUse">
<stop stop-color="#52BBE8"/>
<stop offset="0.196" stop-color="#69C3EB"/>
<stop offset="0.6037" stop-color="#A3D8F1"/>
<stop offset="1" stop-color="#E1EFF8"/>
</linearGradient>
<linearGradient id="paint130_linear_145_287" x1="979.577" y1="1302.39" x2="-70.4939" y2="-319.219" gradientUnits="userSpaceOnUse">
<stop stop-color="#52BBE8"/>
<stop offset="0.196" stop-color="#69C3EB"/>
<stop offset="0.6037" stop-color="#A3D8F1"/>
<stop offset="1" stop-color="#E1EFF8"/>
</linearGradient>
<linearGradient id="paint131_linear_145_287" x1="1024.94" y1="1273.02" x2="-25.1357" y2="-348.6" gradientUnits="userSpaceOnUse">
<stop stop-color="#52BBE8"/>
<stop offset="0.196" stop-color="#69C3EB"/>
<stop offset="0.6037" stop-color="#A3D8F1"/>
<stop offset="1" stop-color="#E1EFF8"/>
</linearGradient>
<linearGradient id="paint132_linear_145_287" x1="726.3" y1="1466.4" x2="-323.772" y2="-155.21" gradientUnits="userSpaceOnUse">
<stop stop-color="#52BBE8"/>
<stop offset="0.196" stop-color="#69C3EB"/>
<stop offset="0.6037" stop-color="#A3D8F1"/>
<stop offset="1" stop-color="#E1EFF8"/>
</linearGradient>
<linearGradient id="paint133_linear_145_287" x1="970.755" y1="1308.1" x2="-79.3181" y2="-313.506" gradientUnits="userSpaceOnUse">
<stop stop-color="#52BBE8"/>
<stop offset="0.196" stop-color="#69C3EB"/>
<stop offset="0.6037" stop-color="#A3D8F1"/>
<stop offset="1" stop-color="#E1EFF8"/>
</linearGradient>
<linearGradient id="paint134_linear_145_287" x1="1450.83" y1="997.225" x2="400.757" y2="-624.374" gradientUnits="userSpaceOnUse">
<stop stop-color="#52BBE8"/>
<stop offset="0.196" stop-color="#69C3EB"/>
<stop offset="0.6037" stop-color="#A3D8F1"/>
<stop offset="1" stop-color="#E1EFF8"/>
</linearGradient>
<linearGradient id="paint135_linear_145_287" x1="1559.2" y1="927.044" x2="509.139" y2="-694.552" gradientUnits="userSpaceOnUse">
<stop stop-color="#52BBE8"/>
<stop offset="0.196" stop-color="#69C3EB"/>
<stop offset="0.6037" stop-color="#A3D8F1"/>
<stop offset="1" stop-color="#E1EFF8"/>
</linearGradient>
<linearGradient id="paint136_linear_145_287" x1="1604.57" y1="897.677" x2="554.491" y2="-723.932" gradientUnits="userSpaceOnUse">
<stop stop-color="#52BBE8"/>
<stop offset="0.196" stop-color="#69C3EB"/>
<stop offset="0.6037" stop-color="#A3D8F1"/>
<stop offset="1" stop-color="#E1EFF8"/>
</linearGradient>
<linearGradient id="paint137_linear_145_287" x1="1704.11" y1="833.213" x2="654.034" y2="-788.381" gradientUnits="userSpaceOnUse">
<stop stop-color="#52BBE8"/>
<stop offset="0.196" stop-color="#69C3EB"/>
<stop offset="0.6037" stop-color="#A3D8F1"/>
<stop offset="1" stop-color="#E1EFF8"/>
</linearGradient>
<linearGradient id="paint138_linear_145_287" x1="825.847" y1="1401.94" x2="-224.227" y2="-219.672" gradientUnits="userSpaceOnUse">
<stop stop-color="#52BBE8"/>
<stop offset="0.196" stop-color="#69C3EB"/>
<stop offset="0.6037" stop-color="#A3D8F1"/>
<stop offset="1" stop-color="#E1EFF8"/>
</linearGradient>
<linearGradient id="paint139_linear_145_287" x1="871.207" y1="1372.56" x2="-178.856" y2="-249.046" gradientUnits="userSpaceOnUse">
<stop stop-color="#52BBE8"/>
<stop offset="0.196" stop-color="#69C3EB"/>
<stop offset="0.6037" stop-color="#A3D8F1"/>
<stop offset="1" stop-color="#E1EFF8"/>
</linearGradient>
<linearGradient id="paint140_linear_145_287" x1="862.384" y1="1378.28" x2="-187.691" y2="-243.335" gradientUnits="userSpaceOnUse">
<stop stop-color="#52BBE8"/>
<stop offset="0.196" stop-color="#69C3EB"/>
<stop offset="0.6037" stop-color="#A3D8F1"/>
<stop offset="1" stop-color="#E1EFF8"/>
</linearGradient>
<linearGradient id="paint141_linear_145_287" x1="817.022" y1="1407.65" x2="-233.049" y2="-213.957" gradientUnits="userSpaceOnUse">
<stop stop-color="#52BBE8"/>
<stop offset="0.196" stop-color="#69C3EB"/>
<stop offset="0.6037" stop-color="#A3D8F1"/>
<stop offset="1" stop-color="#E1EFF8"/>
</linearGradient>
<linearGradient id="paint142_linear_145_287" x1="1396.65" y1="1032.31" x2="346.579" y2="-589.292" gradientUnits="userSpaceOnUse">
<stop stop-color="#52BBE8"/>
<stop offset="0.196" stop-color="#69C3EB"/>
<stop offset="0.6037" stop-color="#A3D8F1"/>
<stop offset="1" stop-color="#E1EFF8"/>
</linearGradient>
<linearGradient id="paint143_linear_145_287" x1="1595.74" y1="903.391" x2="545.665" y2="-718.217" gradientUnits="userSpaceOnUse">
<stop stop-color="#52BBE8"/>
<stop offset="0.196" stop-color="#69C3EB"/>
<stop offset="0.6037" stop-color="#A3D8F1"/>
<stop offset="1" stop-color="#E1EFF8"/>
</linearGradient>
<linearGradient id="paint144_linear_145_287" x1="1541.56" y1="938.48" x2="491.484" y2="-683.14" gradientUnits="userSpaceOnUse">
<stop stop-color="#52BBE8"/>
<stop offset="0.196" stop-color="#69C3EB"/>
<stop offset="0.6037" stop-color="#A3D8F1"/>
<stop offset="1" stop-color="#E1EFF8"/>
</linearGradient>
<linearGradient id="paint145_linear_145_287" x1="672.111" y1="1501.48" x2="-377.955" y2="-120.117" gradientUnits="userSpaceOnUse">
<stop stop-color="#52BBE8"/>
<stop offset="0.196" stop-color="#69C3EB"/>
<stop offset="0.6037" stop-color="#A3D8F1"/>
<stop offset="1" stop-color="#E1EFF8"/>
</linearGradient>
<linearGradient id="paint146_linear_145_287" x1="717.475" y1="1472.11" x2="-332.601" y2="-149.493" gradientUnits="userSpaceOnUse">
<stop stop-color="#52BBE8"/>
<stop offset="0.196" stop-color="#69C3EB"/>
<stop offset="0.6037" stop-color="#A3D8F1"/>
<stop offset="1" stop-color="#E1EFF8"/>
</linearGradient>
<linearGradient id="paint147_linear_145_287" x1="808.198" y1="1413.37" x2="-241.871" y2="-208.244" gradientUnits="userSpaceOnUse">
<stop stop-color="#52BBE8"/>
<stop offset="0.196" stop-color="#69C3EB"/>
<stop offset="0.6037" stop-color="#A3D8F1"/>
<stop offset="1" stop-color="#E1EFF8"/>
</linearGradient>
<linearGradient id="paint148_linear_145_287" x1="1297.1" y1="1096.77" x2="247.035" y2="-524.835" gradientUnits="userSpaceOnUse">
<stop stop-color="#52BBE8"/>
<stop offset="0.196" stop-color="#69C3EB"/>
<stop offset="0.6037" stop-color="#A3D8F1"/>
<stop offset="1" stop-color="#E1EFF8"/>
</linearGradient>
<linearGradient id="paint149_linear_145_287" x1="1442.01" y1="1002.94" x2="391.944" y2="-618.664" gradientUnits="userSpaceOnUse">
<stop stop-color="#52BBE8"/>
<stop offset="0.196" stop-color="#69C3EB"/>
<stop offset="0.6037" stop-color="#A3D8F1"/>
<stop offset="1" stop-color="#E1EFF8"/>
</linearGradient>
<linearGradient id="paint150_linear_145_287" x1="663.289" y1="1507.2" x2="-386.779" y2="-114.406" gradientUnits="userSpaceOnUse">
<stop stop-color="#52BBE8"/>
<stop offset="0.196" stop-color="#69C3EB"/>
<stop offset="0.6037" stop-color="#A3D8F1"/>
<stop offset="1" stop-color="#E1EFF8"/>
</linearGradient>
<linearGradient id="paint151_linear_145_287" x1="1242.92" y1="1131.86" x2="192.841" y2="-489.738" gradientUnits="userSpaceOnUse">
<stop stop-color="#52BBE8"/>
<stop offset="0.196" stop-color="#69C3EB"/>
<stop offset="0.6037" stop-color="#A3D8F1"/>
<stop offset="1" stop-color="#E1EFF8"/>
</linearGradient>
<linearGradient id="paint152_linear_145_287" x1="1387.83" y1="1038.03" x2="337.742" y2="-583.593" gradientUnits="userSpaceOnUse">
<stop stop-color="#52BBE8"/>
<stop offset="0.196" stop-color="#69C3EB"/>
<stop offset="0.6037" stop-color="#A3D8F1"/>
<stop offset="1" stop-color="#E1EFF8"/>
</linearGradient>
<clipPath id="clip0_145_287">
<rect width="1367" height="771" fill="white"/>
</clipPath>
</defs>
</svg>
