<?xml version="1.0" encoding="utf-8"?>
<!-- Generator: Adobe Illustrator 17.0.0, SVG Export Plug-In . SVG Version: 6.00 Build 0)  -->
<!DOCTYPE svg PUBLIC "-//W3C//DTD SVG 1.1//EN" "http://www.w3.org/Graphics/SVG/1.1/DTD/svg11.dtd">
<svg version="1.1" id="Layer_1" xmlns="http://www.w3.org/2000/svg" xmlns:xlink="http://www.w3.org/1999/xlink" x="0px" y="0px"
	 viewBox="0 0 17.99 17.99" enable-background="new 0 0 17.99 17.99" xml:space="preserve">
<path fill="#8E95A2" d="M6.686,11.314c-2.556,0-4.628-2.072-4.628-4.629c0-2.556,2.072-4.628,4.628-4.628
	c2.557,0,4.629,2.072,4.629,4.628C11.314,9.242,9.242,11.314,6.686,11.314 M6.686,0C2.993,0,0,2.993,0,6.686
	c0,3.692,2.993,6.686,6.686,6.686c1.661,0,3.177-0.608,4.346-1.61l0.284,0.282v0.814l5.141,5.133l1.534-1.532l-5.131-5.144h-0.816
	l-0.283-0.282c1.002-1.169,1.611-2.685,1.611-4.347C13.371,2.993,10.378,0,6.686,0"/>
</svg>
