<?xml version="1.0" encoding="UTF-8"?>
<svg xmlns="http://www.w3.org/2000/svg" id="Layer_1" data-name="Layer 1" viewBox="0 0 24 24" width="512" height="512"><path d="M17.5,24a5.772,5.772,0,0,1-4.719-2.238A4.341,4.341,0,0,0,9,20c-4.794,0-9-4.673-9-10A10.011,10.011,0,0,1,10,0c9.772,0,14,11.588,14,17.5A6.508,6.508,0,0,1,17.5,24ZM10,2C-.468,2.379-.38,17.105,9,18a6.3,6.3,0,0,1,5.242,2.4C16.578,23.651,22.1,21.573,22,17.5,22,12.938,18.547,2,10,2ZM6.707,13.707l7-7a1,1,0,0,0-1.414-1.414l-7,7A1,1,0,0,0,6.707,13.707Zm4,2,6-6a1,1,0,0,0-1.414-1.414l-6,6A1,1,0,0,0,10.707,15.707Zm4,2,4-4a1,1,0,0,0-1.414-1.414l-4,4A1,1,0,0,0,14.707,17.707Zm4,2,1-1a1,1,0,0,0-1.414-1.414l-1,1A1,1,0,0,0,18.707,19.707Zm-13-11,3-3A1,1,0,0,0,7.293,4.293l-3,3A1,1,0,0,0,5.707,8.707Z"/></svg>
