<?xml version="1.0" encoding="UTF-8"?>
<svg xmlns="http://www.w3.org/2000/svg" id="Layer_1" data-name="Layer 1" viewBox="0 0 24 24" width="512" height="512"><path d="M23.867,19.964c-.537,1.514-3.066,2.561-4.292,2.988a.875.875,0,0,1-1.045-.4c-.666-1.151-1.938-3.651-1.4-5.166a1.876,1.876,0,0,1,2.366-1.28,1.991,1.991,0,0,1,1,2.569,1.878,1.878,0,0,1,2.366-1.281A1.994,1.994,0,0,1,23.867,19.964Zm-8.935,1.6a10,10,0,1,1,6.8-7.267,1,1,0,0,0,1.948.457A12,12,0,1,0,0,12,12.06,12.06,0,0,0,15.518,23.476a1,1,0,0,0-.586-1.913ZM18,10a2,2,0,0,0-4,0c0,1,.895,1,2,1S18,11,18,10Zm-7,0a1,1,0,0,0-1-1H7a1,1,0,0,0,0,2h3A1,1,0,0,0,11,10Zm4,4.5A2.5,2.5,0,0,0,12.5,12H10.769a1,1,0,0,0,0,2H12.5a.5.5,0,0,1,0,1H12a1,1,0,0,0,0,2h.5a.5.5,0,0,1,0,1H10.769a1,1,0,0,0,0,2H12.5a2.507,2.507,0,0,0,1.987-4A2.471,2.471,0,0,0,15,14.5Z"/></svg>
