<?xml version="1.0" encoding="UTF-8"?>
<svg xmlns="http://www.w3.org/2000/svg" id="Layer_1" data-name="Layer 1" viewBox="0 0 24 24" width="512" height="512"><path d="M22.077,13.12,20.02,9.52A5.011,5.011,0,0,0,15.679,7H8.321A5.011,5.011,0,0,0,3.98,9.52l-2.057,3.6A7.007,7.007,0,0,0,1,16.594V18a4,4,0,0,0,2,3.463V22a2,2,0,0,0,4,0H17a2,2,0,0,0,4,0v-.537A4,4,0,0,0,23,18V16.594A7.007,7.007,0,0,0,22.077,13.12ZM5.717,10.512A3.006,3.006,0,0,1,8.321,9h7.358a3.006,3.006,0,0,1,2.6,1.512L20.277,14H3.723ZM21,18a2,2,0,0,1-2,2H5a2,2,0,0,1-2-2V16.594A5.119,5.119,0,0,1,3.036,16H5v1a1,1,0,0,0,2,0V16H17v1a1,1,0,0,0,2,0V16h1.964a5.119,5.119,0,0,1,.036.594ZM10.586,4.414a2,2,0,0,1,0-2.828l.8-.9a.817.817,0,0,1,1.222,0l.8.9A2.013,2.013,0,0,1,12,5,1.99,1.99,0,0,1,10.586,4.414Zm5.985,0a2,2,0,0,1,0-2.828l.8-.9a.818.818,0,0,1,1.223,0l.8.9A2.013,2.013,0,0,1,17.985,5,1.992,1.992,0,0,1,16.571,4.414Zm-12,0a2,2,0,0,1,0-2.828l.8-.9A.818.818,0,0,1,6.6.686l.8.9A2.013,2.013,0,0,1,5.985,5,1.992,1.992,0,0,1,4.571,4.414Z"/></svg>
