<?xml version="1.0" encoding="UTF-8"?>
<svg xmlns="http://www.w3.org/2000/svg" id="Layer_1" data-name="Layer 1" viewBox="0 0 24 24" width="512" height="512"><path d="M21.469,1.027A3,3,0,0,0,19.209,0H4.791A3,3,0,0,0,1.819,3.405l2.219,16.27A5.017,5.017,0,0,0,8.992,24h6.016a5.017,5.017,0,0,0,4.954-4.324L22.181,3.405A3,3,0,0,0,21.469,1.027ZM17.981,19.406A3.011,3.011,0,0,1,15.008,22H8.992a3.011,3.011,0,0,1-2.973-2.595L4.6,9H16a1,1,0,0,0,0-2H4.327L3.8,3.135A1,1,0,0,1,4.791,2H19.209A1,1,0,0,1,20.2,3.135Z"/></svg>
