<?xml version="1.0" encoding="UTF-8"?>
<!-- Generator: Adobe Illustrator 24.3.0, SVG Export Plug-In . SVG Version: 6.00 Build 0)  -->
<svg xmlns="http://www.w3.org/2000/svg" xmlns:xlink="http://www.w3.org/1999/xlink" version="1.1" id="Layer_1" x="0px" y="0px" viewBox="0 0 512 512" style="enable-background:new 0 0 512 512;" xml:space="preserve" width="512" height="512">
<path d="M510.533,85.763c0,11.713-9.496,21.209-21.209,21.209h-37.625l18.706,32.641c5.857,10.161,2.367,23.147-7.794,29.003  c-10.161,5.857-23.147,2.367-29.003-7.794l0,0l-18.516-32.407l-18.516,32.301c-5.857,10.161-18.842,13.651-29.003,7.794  c-10.161-5.857-13.651-18.842-7.794-29.003l0,0l18.706-32.535h-37.625c-11.713,0-21.209-9.496-21.209-21.209  s9.496-21.209,21.209-21.209h37.625l-18.706-32.641c-5.857-10.161-2.367-23.147,7.794-29.003  c10.161-5.857,23.147-2.367,29.003,7.794l0,0l18.516,32.407l18.516-32.301c5.857-10.161,18.842-13.651,29.003-7.794  s13.651,18.842,7.794,29.003l-18.706,32.535h37.625C501.038,64.554,510.533,74.049,510.533,85.763z M304.805,276.093l-31.347,18.219  c4.899,16.137,4.899,33.365,0,49.502l31.347,18.219c4.305-2.853,9.038-5.001,14.019-6.363l37.752-9.968  c11.327-2.987,22.931,3.774,25.917,15.101s-3.774,22.931-15.101,25.917l-37.71,9.968c-2.765,0.756-4.422,3.58-3.733,6.363  l9.968,37.752c3.318,11.234-3.099,23.03-14.333,26.348c-11.234,3.318-23.03-3.1-26.348-14.333c-0.117-0.396-0.222-0.796-0.316-1.198  l-9.968-37.71c-1.317-4.991-1.818-10.162-1.485-15.313l-32.174-18.728c-10.538,10.227-23.555,17.536-37.773,21.209v37.964  c4.628,2.286,8.848,5.317,12.492,8.971l27.572,27.572c8.317,8.252,8.369,21.684,0.117,30c-8.252,8.316-21.684,8.369-30,0.117  L196.13,478.13c-2.042-2.05-5.359-2.056-7.409-0.015c-0.005,0.005-0.01,0.01-0.015,0.015l-27.572,27.572  c-8.276,8.293-21.707,8.307-30,0.032c-8.293-8.276-8.307-21.707-0.032-30l27.572-27.572c3.649-3.664,7.877-6.703,12.513-8.993  v-37.964c-14.218-3.673-27.236-10.982-37.773-21.209l-32.217,18.706c0.333,5.151-0.168,10.322-1.485,15.313l-9.968,37.71  c-2.656,11.408-14.058,18.503-25.466,15.847c-11.408-2.656-18.503-14.058-15.847-25.466c0.094-0.402,0.199-0.802,0.316-1.198  l9.968-37.731c0.689-2.783-0.968-5.606-3.733-6.363l-37.71-9.968C5.947,383.86-0.814,372.256,2.173,360.929  s14.591-18.088,25.917-15.101l0,0l37.731,9.968c4.99,1.358,9.73,3.506,14.04,6.363l31.347-18.219  c-4.899-16.137-4.899-33.365,0-49.502l-31.22-18.346c-4.305,2.853-9.038,5.001-14.019,6.363l-37.752,9.968  C16.891,295.411,5.287,288.65,2.3,277.323s3.774-22.931,15.101-25.917l37.71-9.968c2.765-0.756,4.422-3.58,3.733-6.363  l-9.968-37.752c-3.318-11.234,3.1-23.03,14.333-26.348s23.03,3.1,26.348,14.333c0.117,0.396,0.222,0.796,0.316,1.198l9.968,37.71  c1.317,4.991,1.818,10.162,1.485,15.313l32.174,18.728c10.514-10.204,23.491-17.51,37.667-21.209l-0.17-36.055  c-4.658-2.345-8.894-5.449-12.535-9.184l-27.572-27.572c-8.804-7.727-9.677-21.127-1.95-29.931s21.127-9.677,29.931-1.95  c0.658,0.577,1.279,1.195,1.861,1.849l27.572,27.572c2.06,2.046,5.385,2.046,7.444,0l27.572-27.572  c8.293-8.287,21.734-8.283,30.021,0.011c8.287,8.293,8.283,21.734-0.011,30.021l0,0l-27.593,27.572  c-3.625,3.629-7.815,6.644-12.407,8.929l0.276,36.14c14.245,3.668,27.291,10.977,37.858,21.209l32.174-18.728  c-0.333-5.151,0.168-10.322,1.485-15.313l9.968-37.71c2.656-11.408,14.058-18.503,25.466-15.847  c11.408,2.656,18.503,14.058,15.847,25.466c-0.094,0.402-0.199,0.802-0.316,1.198l-9.968,37.731  c-0.689,2.782,0.968,5.606,3.733,6.363l37.71,9.968c11.327,2.987,18.088,14.591,15.101,25.917s-14.591,18.088-25.917,15.101  l-37.731-9.968C313.978,280.983,309.18,278.899,304.805,276.093z M234.815,319.062c0-23.427-18.991-42.418-42.418-42.418  s-42.418,18.991-42.418,42.418c0,23.427,18.991,42.418,42.418,42.418S234.815,342.489,234.815,319.062z"/>
</svg>
