<?xml version="1.0" encoding="UTF-8"?>
<svg xmlns="http://www.w3.org/2000/svg" id="Layer_1" data-name="Layer 1" viewBox="0 0 24 24" width="512" height="512"><path d="M15.583,8.558,11.581,2H13a1,1,0,0,0,0-2S9.643.005,9.53.037A3.005,3.005,0,0,0,7,3V9H5.537L4.44,7.343C3.39,5.547.075,5.445,0,7.938v8.124c.073,2.495,3.415,2.394,4.459.584L5.54,15H7v6a3.005,3.005,0,0,0,2.528,2.963C9.617,23.988,13,24,13,24a1,1,0,0,0,0-2H11.584l4-6.531C26.843,14.9,26.845,9.091,15.583,8.558Zm-.646,4.95a1,1,0,0,0-.79.476l-4.773,7.8A1,1,0,0,1,9,21V14a1,1,0,0,0-1-1H5a1,1,0,0,0-.836.451l-1.376,2.1A1.267,1.267,0,0,1,2,16.062L1.938,8a1,1,0,0,1,.834.448l1.4,2.1A1,1,0,0,0,5,11H8a1,1,0,0,0,1-1V3a1,1,0,0,1,.373-.778l4.773,7.82a1,1,0,0,0,.794.478c3.138.188,6.327.873,6.994,1.481C21.27,12.611,18.079,13.309,14.937,13.508Z"/></svg>
