<?xml version="1.0" encoding="UTF-8"?>
<svg xmlns="http://www.w3.org/2000/svg" id="Layer_1" data-name="Layer 1" viewBox="0 0 24 24" width="512" height="512"><path d="M20,7.126V7a7.008,7.008,0,0,0-7-7H8A7.008,7.008,0,0,0,1,7v6.868a7.958,7.958,0,0,0,1.45,4.593l.55.785V20a4,4,0,0,0,4,4h9a4,4,0,0,0,4-4v-.641l.513-.487A8.033,8.033,0,0,0,23,13.075V11A4.008,4.008,0,0,0,20,7.126ZM16,22H7a2,2,0,0,1-2-2H18A2,2,0,0,1,16,22Zm5-8.925a6.027,6.027,0,0,1-1.866,4.348L18.527,18H4.569l-.482-.687A5.975,5.975,0,0,1,3,13.868V10.463A3.98,3.98,0,0,0,5,11h7a1,1,0,0,0,0-2H5A2,2,0,0,1,3,7,5.006,5.006,0,0,1,8,2h5a5.006,5.006,0,0,1,5,5v.126A4.008,4.008,0,0,0,15,11v3a1,1,0,0,0,2,0V11a2,2,0,0,1,4,0Z"/></svg>
