<?xml version="1.0" encoding="UTF-8"?>
<svg xmlns="http://www.w3.org/2000/svg" id="Layer_1" data-name="Layer 1" viewBox="0 0 24 24" width="512" height="512"><path d="M23.9,11.437A12,12,0,0,0,4,4.052a12.055,12.055,0,0,0-.246,17.66A4.847,4.847,0,0,0,7.114,23H16.88a4.988,4.988,0,0,0,3.508-1.429A11.942,11.942,0,0,0,23.9,11.437ZM18.99,20.142A3.005,3.005,0,0,1,16.88,21H7.114a2.863,2.863,0,0,1-1.982-.741A10.045,10.045,0,0,1,5.337,5.543a10,10,0,0,1,13.653,14.6ZM17.707,7.293a1,1,0,0,1,0,1.414l-3.775,3.775a2,2,0,1,1-1.414-1.414l3.775-3.775A1,1,0,0,1,17.707,7.293Z"/></svg>
