<?xml version="1.0" encoding="UTF-8"?>
<svg xmlns="http://www.w3.org/2000/svg" id="Layer_1" data-name="Layer 1" viewBox="0 0 24 24" width="512" height="512"><path d="M15,0a1.959,1.959,0,0,0-2,2V9H5.468L4.229,7.512C3.48,6.459.292,4.933,0,7A1,1,0,0,0,1,8a2.2,2.2,0,0,1,1.692.792L4,10.362V11a5.006,5.006,0,0,0,5,5h2.865l-2.6,3.12a2.5,2.5,0,1,0,1.5,1.323L14,16.562l3.234,3.881a2.5,2.5,0,1,0,1.5-1.323L16.135,16H19a5.006,5.006,0,0,0,5-5V10C24,.114,15.09,0,15,0Zm6.961,9H15l0-7A7.083,7.083,0,0,1,21.961,9ZM19,14H9a3,3,0,0,1-3-3H22A3,3,0,0,1,19,14Z"/></svg>
