<?xml version="1.0" encoding="UTF-8"?>
<svg xmlns="http://www.w3.org/2000/svg" id="Layer_1" data-name="Layer 1" viewBox="0 0 24 24" width="512" height="512"><path d="M14,24a1,1,0,0,1-1-1V18a1,1,0,0,1,2,0v5A1,1,0,0,1,14,24ZM6,24a1,1,0,0,1-1-1V18a1,1,0,0,1,2,0v5A1,1,0,0,1,6,24Zm12-2a1,1,0,0,1-1-1V16a1,1,0,0,1,2,0v5A1,1,0,0,1,18,22Zm-8,0a1,1,0,0,1-1-1V16a1,1,0,0,1,2,0v5A1,1,0,0,1,10,22ZM2,18.328a1,1,0,0,1-.777-.371A5.532,5.532,0,0,1,1.8,10.43a1,1,0,0,0,.345-.9,8.147,8.147,0,0,1-.033-2.889A7.945,7.945,0,0,1,8.5.138a8.052,8.052,0,0,1,8.734,4.438,1.039,1.039,0,0,0,.743.57A7.55,7.55,0,0,1,22.846,16.5a1,1,0,0,1-1.692-1.068,5.537,5.537,0,0,0-3.571-8.325,3.009,3.009,0,0,1-2.158-1.672A6,6,0,0,0,4.086,6.967a6.136,6.136,0,0,0,.024,2.18,3,3,0,0,1-.964,2.763A3.518,3.518,0,0,0,2.777,16.7,1,1,0,0,1,2,18.328Z"/></svg>
