<?xml version="1.0" encoding="UTF-8"?>
<svg xmlns="http://www.w3.org/2000/svg" id="Layer_1" data-name="Layer 1" viewBox="0 0 24 24" width="512" height="512"><path d="M12,0A12.013,12.013,0,0,0,0,12c.6,15.9,23.4,15.893,24,0A12.013,12.013,0,0,0,12,0Zm0,22A10.011,10.011,0,0,1,2,12C2.5-1.248,21.5-1.244,22,12A10.011,10.011,0,0,1,12,22ZM9,10c0-1.054-.68-2-1-2s-1,.946-1,2a1,1,0,0,1-2,0C5,8.108,6.232,6,8,6s3,2.108,3,4A1,1,0,0,1,9,10Zm10,0a1,1,0,0,1-2,0c0-1.054-.68-2-1-2s-1,.946-1,2a1,1,0,0,1-2,0C13.248,4.715,18.753,4.718,19,10Zm-4,4.5A2.5,2.5,0,0,0,12.5,12H10.769a1,1,0,0,0,0,2H12.5a.5.5,0,0,1,0,1H12a1,1,0,0,0,0,2h.5a.5.5,0,0,1,0,1H10.769a1,1,0,0,0,0,2H12.5a2.507,2.507,0,0,0,1.987-4A2.471,2.471,0,0,0,15,14.5Z"/></svg>
