<?xml version="1.0" encoding="UTF-8"?>
<svg xmlns="http://www.w3.org/2000/svg" id="Layer_1" data-name="Layer 1" viewBox="0 0 24 24" width="512" height="512"><path d="M23,8c-1.855,0-3.5-.013-4.791-.795l3.5-3.5a1,1,0,1,0-1.414-1.414L16.806,5.78C16.079,4.544,16,2.974,16,1a1,1,0,0,0-1-1c-1.672.08-.843,2.919-.822,4.122C7.343.205,2.908,7.4.838,13.455c-2.96,8.773,2.132,12.344,9.707,9.706,6.044-2.065,13.238-6.493,9.344-13.319C21.011,9.827,23.9,10.691,24,9A1,1,0,0,0,23,8Zm-5.541,8.985c-2.5,2.658-11.506,6.937-14.508,4.064C-.221,17.764,5.414,4.764,10.38,5c1.7,0,3.566,1.012,5.589,3.035C19.434,11.5,19.935,14.509,17.459,16.985Zm-3.842-6.6a1.308,1.308,0,0,1,0,1.85,5.4,5.4,0,0,1-1.967.752.526.526,0,0,1-.635-.635,5.4,5.4,0,0,1,.752-1.967A1.308,1.308,0,0,1,13.617,10.383Zm3,3a1.308,1.308,0,0,1,0,1.85,5.4,5.4,0,0,1-1.967.752.526.526,0,0,1-.635-.635,5.4,5.4,0,0,1,.752-1.967A1.308,1.308,0,0,1,16.617,13.383Zm-8-1a1.308,1.308,0,0,1,0,1.85,5.4,5.4,0,0,1-1.967.752.526.526,0,0,1-.635-.635,5.4,5.4,0,0,1,.752-1.967A1.308,1.308,0,0,1,8.617,12.383Zm-2,5a1.308,1.308,0,0,1,0,1.85,5.4,5.4,0,0,1-1.967.752.526.526,0,0,1-.635-.635,5.4,5.4,0,0,1,.752-1.967A1.308,1.308,0,0,1,6.617,17.383Zm5-2a1.308,1.308,0,0,1,0,1.85,5.4,5.4,0,0,1-1.967.752.526.526,0,0,1-.635-.635,5.4,5.4,0,0,1,.752-1.967A1.308,1.308,0,0,1,11.617,15.383ZM8.015,9.35a5.4,5.4,0,0,1,.752-1.967,1.308,1.308,0,0,1,1.85,1.85,5.4,5.4,0,0,1-1.967.752A.526.526,0,0,1,8.015,9.35Z"/></svg>
