<?xml version="1.0" encoding="UTF-8"?>
<svg xmlns="http://www.w3.org/2000/svg" id="Layer_1" data-name="Layer 1" viewBox="0 0 24 24" width="512" height="512"><g><path d="M23,24H18.922a2,2,0,0,1-1.972-1.712,5.009,5.009,0,0,0-9.9,0A2,2,0,0,1,5.079,24H1a1,1,0,0,1,0-2H5.079a6.842,6.842,0,0,1,.428-1.608L1.982,18.35a1,1,0,0,1,1-1.731l3.529,2.045a7.056,7.056,0,0,1,1.151-1.147L5.618,13.986a1,1,0,0,1,1.731-1L9.393,16.51A6.964,6.964,0,0,1,11,16.073V12a1,1,0,0,1,2,0v4.072a6.943,6.943,0,0,1,1.606.437l2.045-3.527a1,1,0,1,1,1.731,1l-2.047,3.531a7.055,7.055,0,0,1,1.151,1.147l3.53-2.045a1,1,0,0,1,1,1.731L18.5,20.391a6.873,6.873,0,0,1,.436,1.618L23,22A1,1,0,0,1,23,24Z"/><path d="M8.3,5.708l3,3a1,1,0,0,0,1.414,0l3-3A1,1,0,0,0,14.3,4.293L13,5.586V1a1,1,0,0,0-2,0V5.586L9.7,4.293A1,1,0,0,0,8.291,5.708h0Z"/></g></svg>
