<?xml version="1.0" encoding="UTF-8"?>
<svg xmlns="http://www.w3.org/2000/svg" id="Layer_1" data-name="Layer 1" viewBox="0 0 24 24" width="512" height="512"><path d="M19,18V8.829A3.006,3.006,0,0,0,21,6V3a3,3,0,0,0-3-3H17a2.987,2.987,0,0,0-2,.766A2.987,2.987,0,0,0,13,0H11A2.987,2.987,0,0,0,9,.766,2.987,2.987,0,0,0,7,0H6A3,3,0,0,0,3,3V6A3.006,3.006,0,0,0,5,8.829V18a3,3,0,0,0,0,6H19a3,3,0,0,0,0-6ZM6,7A1,1,0,0,1,5,6V3A1,1,0,0,1,6,2H7A1,1,0,0,1,8,3V4a1,1,0,0,0,2,0V3a1,1,0,0,1,1-1h2a1,1,0,0,1,1,1V4a1,1,0,0,0,2,0V3a1,1,0,0,1,1-1h1a1,1,0,0,1,1,1V6a1,1,0,0,1-1,1,1,1,0,0,0-1,1V18H7V8A1,1,0,0,0,6,7ZM19,22H5a1,1,0,0,1,0-2H19a1,1,0,0,1,0,2ZM10,12V10a2,2,0,0,1,4,0v2a1,1,0,0,1-1,1H11A1,1,0,0,1,10,12Z"/></svg>
