<?xml version="1.0" encoding="UTF-8"?>
<svg xmlns="http://www.w3.org/2000/svg" id="Layer_1" data-name="Layer 1" viewBox="0 0 24 24" width="512" height="512"><path d="M12,0A12.013,12.013,0,0,0,0,12c.6,15.9,23.4,15.893,24,0A12.013,12.013,0,0,0,12,0Zm0,22A10.011,10.011,0,0,1,2,12C2.5-1.248,21.5-1.245,22,12A10.011,10.011,0,0,1,12,22ZM16,7a3,3,0,0,0,0,6A3,3,0,0,0,16,7Zm0,4a1,1,0,0,1,0-2A1,1,0,0,1,16,11Zm-5-1a3,3,0,0,0-6,0A3,3,0,0,0,11,10ZM7,10a1,1,0,0,1,2,0A1,1,0,0,1,7,10Zm10,7a1,1,0,0,1-1,1H8a1,1,0,0,1,0-2h8A1,1,0,0,1,17,17Z"/></svg>
