<?xml version="1.0" encoding="UTF-8"?>
<svg xmlns="http://www.w3.org/2000/svg" id="arrow-circle-down" viewBox="0 0 24 24" width="512" height="512"><path d="M0,5V19a5.006,5.006,0,0,0,5,5H19a5.006,5.006,0,0,0,5-5V5a5.006,5.006,0,0,0-5-5H5A5.006,5.006,0,0,0,0,5ZM19,2a3,3,0,0,1,3,3V19a3,3,0,0,1-3,3H5a3,3,0,0,1-3-3V5A3,3,0,0,1,5,2ZM13.121,6.293a1,1,0,0,0,0,1.414L16.413,11,6,11.007a1,1,0,1,0,0,2L16.414,13l-3.293,3.293a1,1,0,1,0,1.389,1.438l.025-.024,3.586-3.585a3,3,0,0,0,0-4.243h0L14.535,6.293A1,1,0,0,0,13.121,6.293Z"/></svg>
