<?xml version="1.0" encoding="UTF-8"?>
<svg xmlns="http://www.w3.org/2000/svg" id="arrow-circle-down" viewBox="0 0 24 24" width="512" height="512"><path d="M23.351,10.253c-.233-.263-.462-.513-.619-.67L20.487,7.3a1,1,0,0,0-1.426,1.4l2.251,2.29L21.32,11H13V2.745l2.233,2.194a1,1,0,0,0,1.4-1.426l-2.279-2.24c-.163-.163-.413-.391-.674-.623A2.575,2.575,0,0,0,12.028.006.28.28,0,0,0,12,0l-.011,0a2.584,2.584,0,0,0-1.736.647c-.263.233-.513.462-.67.619L7.3,3.513A1,1,0,1,0,8.7,4.939l2.29-2.251L11,2.68V11H2.68l.015-.015L4.939,8.7A1,1,0,1,0,3.513,7.3L1.274,9.577c-.163.163-.392.413-.624.675A2.581,2.581,0,0,0,0,11.989L0,12c0,.01.005.019.006.029A2.573,2.573,0,0,0,.65,13.682c.233.262.461.512.618.67l2.245,2.284a1,1,0,0,0,1.426-1.4L2.744,13H11v8.32l-.015-.014L8.7,19.062a1,1,0,1,0-1.4,1.425l2.278,2.239c.163.163.413.391.675.624a2.587,2.587,0,0,0,3.43,0c.262-.233.511-.46.669-.619l2.284-2.244a1,1,0,1,0-1.4-1.425L13,21.256V13h8.256l-2.2,2.233a1,1,0,1,0,1.426,1.4l2.239-2.279c.163-.163.391-.413.624-.675A2.589,2.589,0,0,0,23.351,10.253Z"/></svg>
