<?xml version="1.0" encoding="UTF-8"?>
<svg xmlns="http://www.w3.org/2000/svg" id="Layer_1" data-name="Layer 1" viewBox="0 0 24 24" width="512" height="512"><path d="M19.5,10H19V9a3,3,0,0,0-3-3H4A3,3,0,0,0,1,9V19a5.006,5.006,0,0,0,5,5h8a5.009,5.009,0,0,0,4.9-4A3.6,3.6,0,0,0,23,16.5v-3A3.5,3.5,0,0,0,19.5,10ZM14,22H6a3,3,0,0,1-3-3V9A1,1,0,0,1,4,8H16a1,1,0,0,1,1,1V19A3,3,0,0,1,14,22Zm7-5.5A1.621,1.621,0,0,1,19,18V12a1.621,1.621,0,0,1,2,1.5ZM9,3V1a1,1,0,0,1,2,0V3A1,1,0,0,1,9,3Zm4,0V1a1,1,0,0,1,2,0V3A1,1,0,0,1,13,3ZM5,3V1A1,1,0,0,1,7,1V3A1,1,0,0,1,5,3Z"/></svg>
