<?xml version="1.0" encoding="UTF-8"?>
<svg xmlns="http://www.w3.org/2000/svg" id="Layer_1" data-name="Layer 1" viewBox="0 0 24 24" width="512" height="512"><path d="M11,12V4a1,1,0,0,1,2,0v8A1,1,0,0,1,11,12Zm13,.429a12.063,12.063,0,0,0-2.638-7.613A6.069,6.069,0,0,1,20,1a1,1,0,0,0-1-1c-2.3.255-.16,5.038.8,6.064A9.42,9.42,0,0,1,17.715,20H6.287A9.426,9.426,0,0,1,4.2,6.064C5.155,5.048,7.306.252,5,0A1,1,0,0,0,4,1,6.069,6.069,0,0,1,2.638,4.816,11.412,11.412,0,0,0,5,21.544V23a1,1,0,0,0,2,0V22H9v1a1,1,0,0,0,2,0V22h2v1a1,1,0,0,0,2,0V22h2v1a1,1,0,0,0,2,0V21.544A11.3,11.3,0,0,0,24,12.429ZM12,17a1,1,0,0,0,0-2A1,1,0,0,0,12,17Z"/></svg>
