<?xml version="1.0" encoding="UTF-8"?>
<svg xmlns="http://www.w3.org/2000/svg" id="Layer_1" data-name="Layer 1" viewBox="0 0 24 24" width="512" height="512"><path d="M20,4.052A12,12,0,0,0,3.612,21.572,4.993,4.993,0,0,0,7.12,23h9.767a4.84,4.84,0,0,0,3.354-1.288A12.053,12.053,0,0,0,20,4.052ZM18.868,20.259A2.862,2.862,0,0,1,16.887,21H7.12a3,3,0,0,1-2.11-.858,10,10,0,1,1,13.858.117ZM20,13a7.932,7.932,0,0,1-2.408,5.715,1,1,0,0,1-1.4-1.43c4.141-3.956.6-11.095-5.05-10.223a1,1,0,0,1-.286-1.981A8.026,8.026,0,0,1,20,13ZM7.806,17.284a1,1,0,0,1-1.4,1.432,7.973,7.973,0,0,1-2.327-6.859,1,1,0,0,1,1.981.286A5.966,5.966,0,0,0,7.806,17.284ZM14,13a2,2,0,1,1-3.932-.518L6.293,8.707A1,1,0,0,1,7.707,7.293l3.775,3.775A2.008,2.008,0,0,1,14,13Z"/></svg>
