<?xml version="1.0" encoding="UTF-8"?>
<svg xmlns="http://www.w3.org/2000/svg" id="Layer_1" data-name="Layer 1" viewBox="0 0 24 24" width="512" height="512"><path d="M12,0A12.013,12.013,0,0,0,0,12c.6,15.9,23.4,15.893,24,0A12.013,12.013,0,0,0,12,0Zm0,22A10.011,10.011,0,0,1,2,12C2.5-1.248,21.5-1.244,22,12A10.011,10.011,0,0,1,12,22Zm5.842-6.458A6.827,6.827,0,0,1,12,19a6.836,6.836,0,0,1-5.848-3.458A1,1,0,0,1,7.2,14.024,15.4,15.4,0,0,0,12,15a15.4,15.4,0,0,0,4.792-.976A1,1,0,0,1,17.842,15.542ZM19,8.65c0,1.3-1.692,2.818-2.535,3.494a.743.743,0,0,1-.93,0c-5.7-4.279.059-7.109.465-3.494A1.5,1.5,0,1,1,19,8.65Zm-14,0a1.5,1.5,0,1,1,3,0c.41-3.617,6.167-.78.465,3.494a.743.743,0,0,1-.93,0C6.692,11.468,5,9.948,5,8.65Z"/></svg>
