<?xml version="1.0" encoding="UTF-8"?>
<svg xmlns="http://www.w3.org/2000/svg" id="Layer_1" data-name="Layer 1" viewBox="0 0 24 24" width="512" height="512"><path d="M12,0A12.013,12.013,0,0,0,0,12c.6,15.9,23.4,15.893,24,0A12.013,12.013,0,0,0,12,0Zm0,22A10.011,10.011,0,0,1,2,12C2.5-1.248,21.5-1.245,22,12A10.011,10.011,0,0,1,12,22ZM12,4a8.009,8.009,0,0,0-8,8c.376,10.588,15.626,10.585,16,0A8.009,8.009,0,0,0,12,4Zm-.834,9.086a4.192,4.192,0,0,0-.144-.813,4.246,4.246,0,0,0-.3-.764A3.594,3.594,0,0,0,12,10.653a3.594,3.594,0,0,0,1.275.856,4.246,4.246,0,0,0-.3.764,4.192,4.192,0,0,0-.144.813A4.11,4.11,0,0,0,11.166,13.086ZM17.12,8.874l-1.93.772A1.6,1.6,0,0,1,13,8.163V6.084A6.016,6.016,0,0,1,17.12,8.874ZM11,6.084V8.163A1.6,1.6,0,0,1,8.81,9.646L6.88,8.874A6.016,6.016,0,0,1,11,6.084ZM6,12a6.031,6.031,0,0,1,.135-1.269l1.7.681a2.128,2.128,0,0,1,.914,3.253l-1.1,1.463A5.983,5.983,0,0,1,6,12Zm3.247,5.33L10.4,15.8a2.057,2.057,0,0,1,3.2,0l1.149,1.531A6.042,6.042,0,0,1,9.247,17.33Zm7.1-1.2-.656-.873-.442-.59a2.128,2.128,0,0,1,.914-3.255l1.7-.681A6.026,6.026,0,0,1,16.348,16.13Z"/></svg>
