<?xml version="1.0" encoding="UTF-8"?>
<svg xmlns="http://www.w3.org/2000/svg" id="Layer_1" data-name="Layer 1" viewBox="0 0 24 24" width="512" height="512"><path d="M19.854,10.293,19.538,9.03A3.994,3.994,0,0,0,15.657,6H7.136l.144-.65A2.983,2.983,0,0,1,10.209,3H17a1,1,0,0,0,0-2H10.209A4.973,4.973,0,0,0,5.327,4.916L4.131,10.3A6.012,6.012,0,0,0,0,16v2a6.006,6.006,0,0,0,6,6H18a6.006,6.006,0,0,0,6-6V16A6.011,6.011,0,0,0,19.854,10.293ZM15.657,8A2,2,0,0,1,17.6,9.515L17.72,10H6.247l.444-2ZM6,12H18a4,4,0,0,1,4,4H2A4,4,0,0,1,6,12ZM18,22H6a4,4,0,0,1-4-4H22A4,4,0,0,1,18,22Z"/></svg>
