<?xml version="1.0" encoding="UTF-8"?>
<svg xmlns="http://www.w3.org/2000/svg" id="Layer_1" data-name="Layer 1" viewBox="0 0 24 24" width="512" height="512"><path d="M23.287,12.967,15.155,1.543c-.011-.016-.023-.031-.035-.046a4,4,0,0,0-6.275.046L.7,12.98a4,4,0,0,0,1,5.541l7.666,4.733a4.97,4.97,0,0,0,5.254,0l7.73-4.776A3.984,3.984,0,0,0,23.287,12.967ZM2.822,16.862a1.987,1.987,0,0,1-.48-2.735l8.1-11.378A2.008,2.008,0,0,1,11,2.268V21.829a2.982,2.982,0,0,1-.576-.276Zm18.42-.043-7.666,4.734a3.01,3.01,0,0,1-.576.276V2.268a1.993,1.993,0,0,1,.544.461l8.1,11.384A1.979,1.979,0,0,1,21.242,16.819Z"/></svg>
