<?xml version="1.0" encoding="UTF-8"?>
<svg xmlns="http://www.w3.org/2000/svg" id="Layer_1" data-name="Layer 1" viewBox="0 0 24 24" width="512" height="512"><path d="M12,0C5.935,0,1,4.686,1,10.444,1,15.9,5.619,24,12,24s11-8.1,11-13.556C23,4.686,18.065,0,12,0Zm0,22c-4.968,0-9-6.992-9-11.556A8.746,8.746,0,0,1,12,2a8.746,8.746,0,0,1,9,8.444C21,15.008,16.968,22,12,22Zm7-11a2.292,2.292,0,0,1-2.5,2A2.292,2.292,0,0,1,14,11a2.292,2.292,0,0,1,2.5-2A2.292,2.292,0,0,1,19,11ZM7.5,13A2.292,2.292,0,0,1,5,11,2.292,2.292,0,0,1,7.5,9,2.292,2.292,0,0,1,10,11,2.292,2.292,0,0,1,7.5,13ZM11,16a1,1,0,1,1-1-1A1,1,0,0,1,11,16Zm4,0a1,1,0,1,1-1-1A1,1,0,0,1,15,16ZM9,5a1,1,0,1,1,1,1A1,1,0,0,1,9,5Zm4,3a1,1,0,1,1-1-1A1,1,0,0,1,13,8Zm0-3a1,1,0,1,1,1,1A1,1,0,0,1,13,5ZM11,19a1,1,0,1,1-1-1A1,1,0,0,1,11,19Zm4,0a1,1,0,1,1-1-1A1,1,0,0,1,15,19Z"/></svg>
