<?xml version="1.0" encoding="UTF-8"?>
<svg xmlns="http://www.w3.org/2000/svg" id="Layer_1" data-name="Layer 1" viewBox="0 0 24 24" width="512" height="512"><path d="M16.5,6c-4.612.129-4.611,7.872,0,8C21.112,13.871,21.111,6.128,16.5,6Zm0,6c-1.114.045-1.833-1.743-1.352-2.85a1.514,1.514,0,0,0,2.7,0C18.333,10.257,17.614,12.045,16.5,12ZM11,10c-.128-5.278-6.872-5.277-7,0C4.128,15.278,10.872,15.277,11,10ZM6,10a2.479,2.479,0,0,1,.148-.85,1.514,1.514,0,0,0,2.7,0C9.772,11.956,6.265,13.4,6,10Zm11,7a1,1,0,0,1-1,1H8a1,1,0,0,1,0-2h8A1,1,0,0,1,17,17ZM12,0A12.013,12.013,0,0,0,0,12c.6,15.9,23.4,15.894,24,0A12.013,12.013,0,0,0,12,0Zm0,22A10.011,10.011,0,0,1,2,12C2.5-1.248,21.5-1.244,22,12A10.011,10.011,0,0,1,12,22Z"/></svg>
