<?xml version="1.0" encoding="UTF-8"?>
<svg xmlns="http://www.w3.org/2000/svg" id="Layer_1" data-name="Layer 1" viewBox="0 0 24 24" width="512" height="512"><path d="M24,8V2a2,2,0,0,0-2-2H20a2,2,0,0,0-2,2V4H15V2a2,2,0,0,0-2-2H11A2,2,0,0,0,9,2V4H6V2A2,2,0,0,0,4,0H2A2,2,0,0,0,0,2V8a4.005,4.005,0,0,0,3,3.873V22H2a1,1,0,0,0,0,2H22a1,1,0,0,0,0-2H21V11.873A4.005,4.005,0,0,0,24,8ZM5,22V11a1,1,0,0,0-1-1A2,2,0,0,1,2,8V2H4V5A1,1,0,0,0,5,6h5a1,1,0,0,0,1-1V2h2V5a1,1,0,0,0,1,1h5a1,1,0,0,0,1-1V2h2V8a2,2,0,0,1-2,2,1,1,0,0,0-1,1V22Zm7-11a3,3,0,0,0-3,3v3a1,1,0,0,0,1,1h4a1,1,0,0,0,1-1V14A3,3,0,0,0,12,11Zm1,5H11V14a1,1,0,0,1,2,0Z"/></svg>
