<?xml version="1.0" encoding="UTF-8"?>
<svg xmlns="http://www.w3.org/2000/svg" id="Layer_1" data-name="Layer 1" viewBox="0 0 24 24" width="512" height="512"><path d="M20,4.052A12,12,0,0,0,3.612,21.571,4.988,4.988,0,0,0,7.12,23h9.767a4.84,4.84,0,0,0,3.354-1.288A12.054,12.054,0,0,0,20,4.052ZM18.868,20.259A2.862,2.862,0,0,1,16.887,21H7.12a3.005,3.005,0,0,1-2.11-.858,10,10,0,1,1,13.858.117ZM8.82,6.683a1,1,0,0,1-.248,1.392,6.031,6.031,0,0,0-.766,9.21,1,1,0,1,1-1.4,1.43A8.042,8.042,0,0,1,7.427,6.435,1,1,0,0,1,8.82,6.683ZM20,13a7.932,7.932,0,0,1-2.408,5.715,1,1,0,0,1-1.4-1.43,6.031,6.031,0,0,0-.765-9.21,1,1,0,1,1,1.144-1.64A8.008,8.008,0,0,1,20,13Zm-6,0a2,2,0,1,1-3-1.732V6a1,1,0,0,1,2,0v5.268A2,2,0,0,1,14,13Z"/></svg>
