<svg id="Layer_1" height="512" viewBox="0 0 24 24" width="512" xmlns="http://www.w3.org/2000/svg" data-name="Layer 1"><path d="m7.5 13a4.5 4.5 0 1 1 4.5-4.5 4.505 4.505 0 0 1 -4.5 4.5zm0-7a2.5 2.5 0 1 0 2.5 2.5 2.5 2.5 0 0 0 -2.5-2.5zm7.5 17v-.5a7.5 7.5 0 0 0 -15 0v.5a1 1 0 0 0 2 0v-.5a5.5 5.5 0 0 1 11 0v.5a1 1 0 0 0 2 0zm9-5a7 7 0 0 0 -11.667-5.217 1 1 0 1 0 1.334 1.49 5 5 0 0 1 8.333 3.727 1 1 0 0 0 2 0zm-6.5-9a4.5 4.5 0 1 1 4.5-4.5 4.505 4.505 0 0 1 -4.5 4.5zm0-7a2.5 2.5 0 1 0 2.5 2.5 2.5 2.5 0 0 0 -2.5-2.5z"/></svg>