<?xml version="1.0" encoding="UTF-8"?>
<svg xmlns="http://www.w3.org/2000/svg" id="Layer_1" data-name="Layer 1" viewBox="0 0 24 24" width="512" height="512"><path d="M23,12a1,1,0,0,1-1,1H19.13a3.016,3.016,0,0,1-2.569-1.452L15.193,9.277,13.706,12.9a1,1,0,0,1-1.851-.758L13.555,8H11.616L9.552,13.032a1,1,0,0,0,.39,1.225l4.592,2.9A1,1,0,0,1,15,18v5a1,1,0,0,1-2,0V18.551l-4.126-2.6A3,3,0,0,1,7.7,12.273L9.454,8H7.236a.994.994,0,0,0-.894.552L4.895,11.447a1,1,0,0,1-1.79-.894l1.448-2.9A2.984,2.984,0,0,1,7.236,6h6.623A3.017,3.017,0,0,1,16.43,7.453l1.844,3.063A1.006,1.006,0,0,0,19.13,11H22A1,1,0,0,1,23,12ZM7.875,16.814a1,1,0,0,0-1.3.557A.994.994,0,0,1,5.646,18H3a1,1,0,0,0,0,2H5.646a2.987,2.987,0,0,0,2.786-1.886A1,1,0,0,0,7.875,16.814ZM15,5a2.5,2.5,0,1,0-2.5-2.5A2.5,2.5,0,0,0,15,5Z"/></svg>
