<?xml version="1.0" encoding="UTF-8"?>
<svg xmlns="http://www.w3.org/2000/svg" id="Layer_1" data-name="Layer 1" viewBox="0 0 24 24" width="512" height="512"><path d="M10,12a1,1,0,0,1-1-1c0-1.054-.68-2-1-2s-1,.946-1,2a1,1,0,0,1-2,0C5,9.108,6.232,7,8,7s3,2.108,3,4A1,1,0,0,1,10,12Zm9-1c0-1.892-1.232-4-3-4s-3,2.108-3,4a1,1,0,0,0,2,0c0-1.054.68-2,1-2s1,.946,1,2a1,1,0,0,0,2,0Zm5,1A12.013,12.013,0,0,0,12,0C-3.9.6-3.893,23.4,12,24A12.013,12.013,0,0,0,24,12Zm-2,0A10.011,10.011,0,0,1,12,22C-1.249,21.5-1.244,2.5,12,2A10.011,10.011,0,0,1,22,12Zm-4.334,3.746a1,1,0,0,0-1.33-1.493,6.36,6.36,0,0,1-8.67,0,1,1,0,0,0-1.332,1.492A9.454,9.454,0,0,0,12,18,9.454,9.454,0,0,0,17.666,15.746Z"/></svg>
