<?xml version="1.0" encoding="UTF-8"?>
<svg xmlns="http://www.w3.org/2000/svg" id="Layer_1" data-name="Layer 1" viewBox="0 0 24 24" width="512" height="512"><path d="M16.949,15.293a5.178,5.178,0,0,1-9.9.007A.994.994,0,0,1,8.009,14H15.99A.994.994,0,0,1,16.949,15.293ZM24,12A12.013,12.013,0,0,1,12,24C-3.9,23.4-3.893.6,12,0A12.013,12.013,0,0,1,24,12Zm-2,0A10.011,10.011,0,0,0,12,2c-13.248.5-13.245,19.5,0,20A10.011,10.011,0,0,0,22,12ZM16,8a2,2,0,0,0-2,2c0,1,.895,1,2,1s2,0,2-1A2,2,0,0,0,16,8Zm-5,2a1,1,0,0,0-1-1H7a1,1,0,0,0,0,2h3A1,1,0,0,0,11,10Z"/></svg>
