<?xml version="1.0" encoding="UTF-8"?>
<svg xmlns="http://www.w3.org/2000/svg" id="Layer_1" data-name="Layer 1" viewBox="0 0 24 24" width="512" height="512"><path d="M9.5,5c-7.268.231-7.267,10.77,0,11C16.768,15.769,16.767,5.23,9.5,5Zm0,9a3.5,3.5,0,0,1,0-7A3.5,3.5,0,0,1,9.5,14ZM19.524,5.322a2.3,2.3,0,0,1-1.212-.866A9.943,9.943,0,0,0,9.549.01,10.227,10.227,0,0,0,0,11,13.015,13.015,0,0,0,13,24a8.223,8.223,0,0,0,7.829-6.121,2.534,2.534,0,0,1,.829-1.389C25.561,13.437,24.287,6.715,19.524,5.322Zm.854,9.631a4.547,4.547,0,0,0-1.5,2.487A6.157,6.157,0,0,1,13,22,11.013,11.013,0,0,1,2,11c-.339-4.727,3.367-9.047,8-9a7.94,7.94,0,0,1,6.646,3.566A4.257,4.257,0,0,0,18.9,7.223h0A4.524,4.524,0,0,1,20.378,14.953ZM13,19a1,1,0,0,1-2,0A1,1,0,0,1,13,19Zm7-8a1,1,0,0,1-2,0A1,1,0,0,1,20,11Zm-4,6a1,1,0,0,1-2,0A1,1,0,0,1,16,17Z"/></svg>
