<?xml version="1.0" encoding="UTF-8"?>
<svg xmlns="http://www.w3.org/2000/svg" id="Layer_1" data-name="Layer 1" viewBox="0 0 24 24" width="512" height="512"><path d="M19,12H16.386l.54-4.331A3.017,3.017,0,0,0,14,4.017H11.631c.109-.771.043-2.007,1.134-2.012H16a1,1,0,1,0,0-2H12.765A3,3,0,0,0,9.79,2.633L9.617,4.017H3A3.021,3.021,0,0,0,.059,7.572L1.572,19.63a5.005,5.005,0,0,0,4.959,4.376L19,23.994a5,5,0,0,0,5-5V17A5,5,0,0,0,19,12Zm3,5H10a3,3,0,0,1,3-3h6A3,3,0,0,1,22,17ZM14,6.016a1.011,1.011,0,0,1,.96,1.311L14.873,8h-3.74l.248-1.986ZM2.224,6.39A1,1,0,0,1,3,6.016H9.367L9.118,8H2.124l-.1-.77A.993.993,0,0,1,2.224,6.39ZM3.556,19.382,2.376,10H14.623l-.251,2H13a5,5,0,0,0-5,5c-.042,1.634-.1,3.74,1.036,5.01H6.531A3,3,0,0,1,3.556,19.382ZM19,22H13a3,3,0,0,1-3-3h3.7c.387.186,2.875,2.111,3.3,2,.416.118,2.93-1.823,3.3-2H22A3,3,0,0,1,19,22Z"/></svg>
