<?xml version="1.0" encoding="UTF-8"?>
<svg xmlns="http://www.w3.org/2000/svg" id="Layer_1" data-name="Layer 1" viewBox="0 0 24 24" width="512" height="512"><path d="M5,13a5,5,0,1,0,5,5A5.006,5.006,0,0,0,5,13Zm0,8a3,3,0,1,1,3-3A3,3,0,0,1,5,21Zm14-8a5,5,0,1,0,5,5A5.006,5.006,0,0,0,19,13Zm0,8a3,3,0,1,1,3-3A3,3,0,0,1,19,21Zm-8.636-9.723a.988.988,0,0,1-.051-1.457c.169-.16,2.653-2.44,2.653-2.44l3.327,3.327a1,1,0,0,0,1.414-1.414l-4-4a.961.961,0,0,0-.124-.107A6.454,6.454,0,0,0,9.923,4C8.521,4,5,5.19,5,8a3,3,0,0,0,3,3c.024,0,.046-.005.069-.006a2.99,2.99,0,0,0,.993,1.8L11,14.459V18a1,1,0,0,0,2,0V14a1,1,0,0,0-.349-.759ZM7,8C7,6.786,9.172,6,9.923,6a4.194,4.194,0,0,1,1.339.227S8.946,8.361,8.919,8.387C8.538,8.749,8.225,9,8,9A1,1,0,0,1,7,8Zm7-5.5A2.5,2.5,0,1,1,16.5,5,2.5,2.5,0,0,1,14,2.5Z"/></svg>
