<?xml version="1.0" encoding="UTF-8"?>
<svg xmlns="http://www.w3.org/2000/svg" id="Layer_1" data-name="Layer 1" viewBox="0 0 24 24" width="512" height="512"><path d="M21.8,5.579,14.8.855A4.981,4.981,0,0,0,9.2.855l-7,4.724A4.992,4.992,0,0,0,0,9.724V19a5.006,5.006,0,0,0,5,5,1,1,0,0,0,1-1V13a2,2,0,0,1,2-2h8a2,2,0,0,1,2,2V23a1,1,0,0,0,1,1,5.006,5.006,0,0,0,5-5V9.724A4.993,4.993,0,0,0,21.8,5.579ZM22,19a3.006,3.006,0,0,1-2,2.829V13a4,4,0,0,0-4-4H8a4,4,0,0,0-4,4v8.829A3.006,3.006,0,0,1,2,19V9.724A3,3,0,0,1,3.322,7.237l7-4.723a2.979,2.979,0,0,1,3.356,0l7,4.723A3,3,0,0,1,22,9.724Zm-6.1-2.907A2.99,2.99,0,0,0,13.036,14H10.964A2.99,2.99,0,0,0,8.1,16.093l-.672,2.119C7.205,19.31,6.256,21.814,8,22v1a1,1,0,0,0,2,0V22h4v1a1,1,0,0,0,2,0V22c1.744-.188.8-2.688.568-3.789ZM10.964,16h2.072a1,1,0,0,1,.953.7L14.4,18H9.6l.414-1.3A1,1,0,0,1,10.964,16Z"/></svg>
