<?xml version="1.0" encoding="UTF-8"?>
<svg xmlns="http://www.w3.org/2000/svg" id="Layer_1" data-name="Layer 1" viewBox="0 0 24 24" width="512" height="512"><path d="M20,10h-.115A3.1,3.1,0,0,0,17,6L3,6c-5.451.372-2,8.651-.589,10.912A6.877,6.877,0,0,0,8.216,20h3.567a6.875,6.875,0,0,0,5.742-3H20C24.814,16.907,25.759,9.822,20,10Zm-8.217,8H8.216a4.881,4.881,0,0,1-4.131-2.179C3.541,15.3.494,8,3,8L17,8a.973.973,0,0,1,.729.325,1.028,1.028,0,0,1,.261.8C17.427,13.384,16.368,17.811,11.783,18ZM20,15H18.588a16.82,16.82,0,0,0,.954-3c1.209-.081,2.546.216,2.458,1.143A1.984,1.984,0,0,1,20,15ZM9.025,3V1a1,1,0,0,1,2,0V3A1,1,0,0,1,9.025,3Zm4,0V1a1,1,0,0,1,2,0V3A1,1,0,0,1,13.025,3Zm-8,0V1a1,1,0,0,1,2,0V3A1,1,0,0,1,5.025,3ZM20,23a1,1,0,0,1-1,1H1a1,1,0,0,1,0-2H19A1,1,0,0,1,20,23Z"/></svg>
