<?xml version="1.0" encoding="UTF-8"?>
<svg xmlns="http://www.w3.org/2000/svg" id="arrow-circle-down" viewBox="0 0 24 24" width="512" height="512"><path d="M24,5V19a5.006,5.006,0,0,1-5,5H5a5.006,5.006,0,0,1-5-5V5A5.006,5.006,0,0,1,5,0H19A5.006,5.006,0,0,1,24,5ZM2,19a3,3,0,0,0,3,3H19a3,3,0,0,0,3-3V5a3,3,0,0,0-3-3H5A3,3,0,0,0,2,5Zm14-7a2.993,2.993,0,0,1-.752,1.987c-.291.327-.574.637-.777.84L11.647,17.7a1,1,0,1,1-1.426-1.4L13.05,13.42c.187-.188.441-.468.7-.759a1,1,0,0,0,0-1.323c-.258-.29-.512-.57-.693-.752L10.221,7.7a1,1,0,1,1,1.426-1.4l2.829,2.879c.2.2.48.507.769.833A2.99,2.99,0,0,1,16,12Z"/></svg>
