<?xml version="1.0" encoding="UTF-8"?>
<svg xmlns="http://www.w3.org/2000/svg" id="Layer_1" data-name="Layer 1" viewBox="0 0 24 24" width="512" height="512"><path d="M10.808,9.845a1.6,1.6,0,0,1-.076,1.645L8.85,14.527a1,1,0,0,1-1.7-1.054L8.683,11H6.615A1.614,1.614,0,0,1,5.07,8.917C5.1,8.835,7.148,5.476,7.148,5.476a1,1,0,1,1,1.7,1.048L7.328,9H9.4A1.6,1.6,0,0,1,10.808,9.845ZM24,3V5.5a2.5,2.5,0,0,1-2,2.45V17a4,4,0,0,1-4,4H15.582A5.008,5.008,0,0,1,11,24H5a5.006,5.006,0,0,1-5-5V5A5.006,5.006,0,0,1,5,0h6a5.006,5.006,0,0,1,5,5V19h2a2,2,0,0,0,2-2V7.95A2.5,2.5,0,0,1,18,5.5V3a1,1,0,0,1,2,0V4h2V3A1,1,0,0,1,24,3ZM14,19V11H13a1,1,0,0,1,0-2h1V5a3,3,0,0,0-3-3H5A3,3,0,0,0,2,5V9H3a1,1,0,0,1,0,2H2v8a3,3,0,0,0,3,3h6A3,3,0,0,0,14,19Z"/></svg>
