<?xml version="1.0" encoding="UTF-8"?>
<svg xmlns="http://www.w3.org/2000/svg" id="Layer_1" data-name="Layer 1" viewBox="0 0 24 24" width="512" height="512"><path d="M14.869,12.888,23.04,5.337c2.075-1.782.479-5.448-2.2-5.337H3.158C.467-.1-1.128,3.559.991,5.365l8.146,7.529A4.243,4.243,0,0,0,11,13.87V22H7a1,1,0,0,0,0,2H17a1,1,0,0,0,0-2H13V13.869A4.258,4.258,0,0,0,14.869,12.888ZM4.624,6H16a1,1,0,0,0,0-2H2.46a1.109,1.109,0,0,1,.7-2H20.842a1.148,1.148,0,0,1,1.076.753A1,1,0,0,1,21.652,3.9l-8.135,7.517a2.254,2.254,0,0,1-1.5.589.049.049,0,0,0-.024,0,2.235,2.235,0,0,1-1.5-.583Z"/></svg>
