<?xml version="1.0" encoding="UTF-8"?>
<svg xmlns="http://www.w3.org/2000/svg" id="Layer_1" data-name="Layer 1" viewBox="0 0 24 24" width="512" height="512"><path d="M24,13a11.914,11.914,0,0,1-3.508,8.47,3.037,3.037,0,0,1-4.12.174l-1.026-.887a1,1,0,0,1,1.308-1.514l1.027.888a1.014,1.014,0,0,0,1.395-.075,10.044,10.044,0,0,0-.414-14.513A9.91,9.91,0,0,0,10.84,3.065,9.992,9.992,0,0,0,4.963,20.094a1,1,0,0,0,1.356.038l1.027-.889a1,1,0,1,1,1.308,1.514l-1.026.888a3.014,3.014,0,0,1-4.073-.13A12,12,0,1,1,24,13Zm-5.949,3.748a1,1,0,1,0,.8-1.832L13.988,12.78a2,2,0,1,0-.8,1.832Z"/></svg>
