<?xml version="1.0" encoding="UTF-8"?>
<!-- Generator: Adobe Illustrator 24.3.0, SVG Export Plug-In . SVG Version: 6.00 Build 0)  -->
<svg xmlns="http://www.w3.org/2000/svg" xmlns:xlink="http://www.w3.org/1999/xlink" version="1.1" id="Layer_1" x="0px" y="0px" viewBox="0 0 512 512" style="enable-background:new 0 0 512 512;" xml:space="preserve" width="512" height="512">
<path d="M362.834,511.486c-128.99,2.483-198.057-162.07-106.095-252.272V108.327c4.477-140.236,207.755-140.045,212.189,0v150.888  C560.912,349.437,491.781,513.969,362.834,511.486z M362.834,44.67c-35.157,0-63.657,28.5-63.657,63.657v159.927  c-0.001,6.024-2.562,11.763-7.045,15.787c-43.688,39.047-47.449,106.117-8.402,149.805c39.047,43.688,106.117,47.449,149.805,8.402  s47.449-106.117,8.402-149.805c-2.642-2.955-5.447-5.761-8.402-8.402c-4.483-4.024-7.044-9.763-7.045-15.787V108.327  C426.49,73.17,397.99,44.67,362.834,44.67z M362.834,426.61c-35.236-0.443-63.441-29.366-62.998-64.602  c0.332-26.451,16.952-49.953,41.779-59.083V171.983c0-11.719,9.5-21.219,21.219-21.219c11.719,0,21.219,9.5,21.219,21.219v130.942  c33.074,12.162,50.026,48.832,37.864,81.906C412.787,409.659,389.284,426.278,362.834,426.61z M362.834,341.735  c-11.719,0-21.219,9.5-21.219,21.219s9.5,21.219,21.219,21.219c11.719,0,21.219-9.5,21.219-21.219S374.553,341.735,362.834,341.735z   M134.242,323.465c-11.788-0.169-21.207-9.863-21.037-21.651c0.078-5.449,2.238-10.662,6.036-14.57l22.407-22.428  c2.683-2.684,5.708-5.003,8.997-6.896v-23.044c-14.56-2.095-28.166-8.477-39.085-18.333L91.21,228.362  c0.045,3.788-0.426,7.564-1.4,11.225l-8.127,30.661c-3,11.332-14.619,18.087-25.951,15.087c-11.332-3-18.087-14.619-15.087-25.951  l0,0l8.148-30.661l-30.874-8.488c-11.382-2.79-18.346-14.279-15.556-25.661s14.279-18.346,25.661-15.556  c0.254,0.062,0.507,0.129,0.759,0.201l30.619,8.127c3.653,0.946,7.163,2.373,10.44,4.244l19.564-11.352  c-3.304-12.678-3.231-25.999,0.212-38.64l-19.734-11.416c-3.276,1.872-6.787,3.3-10.44,4.244l-30.683,8.106  c-11.138,3.645-23.121-2.43-26.766-13.567c-3.645-11.138,2.43-23.121,13.567-26.766c0.766-0.251,1.545-0.457,2.335-0.619  l30.661-8.106l-7.915-31.022c-3-11.332,3.754-22.951,15.087-25.951s22.951,3.754,25.951,15.087l8.127,30.661  c0.979,3.66,1.458,7.436,1.422,11.225l20.964,12.18c10.814-9.54,24.176-15.72,38.449-17.781l-0.233-21.537  c-3.319-1.894-6.367-4.228-9.06-6.939l-22.407-22.428c-8.141-8.429-7.908-21.862,0.521-30.004c8.223-7.942,21.259-7.942,29.482,0  l22.428,22.428l22.832-22.428c8.141-8.429,21.574-8.662,30.004-0.521c8.429,8.141,8.662,21.574,0.521,30.004  c-0.171,0.177-0.344,0.35-0.521,0.521l-22.428,22.428c-2.654,2.678-5.66,4.983-8.933,6.854l0.233,42.077  c0,11.719-9.5,21.219-21.219,21.219h-10.609c-17.578,0-31.828,14.25-31.828,31.828s14.25,31.828,31.828,31.828h10.609  c11.719,0,21.219,9.5,21.219,21.219v59.095c0,11.719-9.5,21.219-21.219,21.219l-22.619,22.513  C145.266,321.228,139.869,323.464,134.242,323.465z"/>
</svg>
