<?xml version="1.0" encoding="UTF-8"?>
<svg xmlns="http://www.w3.org/2000/svg" id="Layer_1" data-name="Layer 1" viewBox="0 0 24 24" width="512" height="512"><path d="M19,17a5.006,5.006,0,0,0,5-5V9a3,3,0,0,0-6,0H13.246a3,3,0,0,1-2.91-2.272L9.851,4.787A4.993,4.993,0,0,0,5,1H4A4,4,0,0,0,0,5v7a5.006,5.006,0,0,0,5,5H6v4H1a1,1,0,0,0,0,2H20a4,4,0,0,0,4-4,1,1,0,0,0-2,0,2,2,0,0,1-2,2H18V17ZM2,12V5A2,2,0,0,1,4,3H5A3,3,0,0,1,7.91,5.272L8.4,7.213A4.991,4.991,0,0,0,13.246,11H18a2,2,0,0,0,2-2,1,1,0,0,1,2,0v3a3,3,0,0,1-3,3H5A3,3,0,0,1,2,12Zm14,9H8V17h8Z"/></svg>
