<?xml version="1.0" encoding="UTF-8"?>
<svg xmlns="http://www.w3.org/2000/svg" id="Layer_1" data-name="Layer 1" viewBox="0 0 24 24" width="512" height="512"><path d="M22.712,7.5A4.4,4.4,0,0,0,19.6,0,4.363,4.363,0,0,0,16.5,1.288L13.82,3.964A33.868,33.868,0,0,0,8.952,10.11a21.946,21.946,0,0,1-2.647,3.44l-4.17,4.171-.428-.428A1,1,0,1,0,.293,18.707l5,5a1,1,0,1,0,1.414-1.414L6.318,21.9l4.094-4.093A26.185,26.185,0,0,1,14.1,14.975a33.73,33.73,0,0,0,5.793-4.65ZM4.9,20.49,3.549,19.135l4.17-4.171c.161-.161.343-.357.54-.58l1.4,1.4c-.266.229-.493.437-.664.608Zm8.124-7.2c-.591.374-1.212.81-1.794,1.246L9.521,12.819c.395-.531.787-1.1,1.133-1.658a31.86,31.86,0,0,1,4.58-5.783L17.911,2.7a2.451,2.451,0,0,1,3.387,0,2.394,2.394,0,0,1,0,3.387L18.477,8.911A31.737,31.737,0,0,1,13.028,13.285ZM20.5,16.979a3.5,3.5,0,1,0,3.5,3.5A3.5,3.5,0,0,0,20.5,16.979Zm0,5a1.5,1.5,0,1,1,1.5-1.5A1.5,1.5,0,0,1,20.5,21.979Z"/></svg>
