<?xml version="1.0" encoding="UTF-8"?>
<svg xmlns="http://www.w3.org/2000/svg" id="Layer_1" data-name="Layer 1" viewBox="0 0 24 24" width="512" height="512"><path d="M20.573,4.312l-6-3.6a4.989,4.989,0,0,0-5.146,0l-6,3.6A5.027,5.027,0,0,0,1,8.6v6.8a5.027,5.027,0,0,0,2.427,4.288l6,3.6a4.987,4.987,0,0,0,5.146,0l6-3.6A5.027,5.027,0,0,0,23,15.4V8.6A5.027,5.027,0,0,0,20.573,4.312ZM3.005,8.437l2.733,1.639L3,14.09S3,8.491,3.005,8.437Zm9-5.378L15.3,9H8.7Zm9,10.918-2.73-3.905L21,8.437C21,8.491,21,13.977,21,13.977ZM8.805,11H15.2L12,16.113ZM4.018,16.147l2.943-4.322L10.007,16.7Zm13.029-4.334,3.027,4.332L14,16.683Zm2.5-5.786a2.98,2.98,0,0,1,.668.548L17.233,8.361l-3.1-5.579Zm-15.086,0L9.868,2.781,6.77,8.363,3.789,6.575A2.98,2.98,0,0,1,4.457,6.027Zm.44,12.21L11,18.8v3.03a3.022,3.022,0,0,1-.543-.257Zm8.646,3.335a3.022,3.022,0,0,1-.543.257v-3.05l6.1-.54Z"/></svg>
