<?xml version="1.0" encoding="UTF-8"?>
<svg xmlns="http://www.w3.org/2000/svg" id="Layer_1" data-name="Layer 1" viewBox="0 0 24 24" width="512" height="512"><path d="M14,24a.979.979,0,0,1-.394-.081,1,1,0,0,1-.525-1.313l3-7a1,1,0,1,1,1.838.788l-3,7A1,1,0,0,1,14,24Zm-4,0a.979.979,0,0,1-.394-.081,1,1,0,0,1-.525-1.313l3-7a1,1,0,0,1,1.838.788l-3,7A1,1,0,0,1,10,24ZM6,24a.979.979,0,0,1-.394-.081,1,1,0,0,1-.525-1.313l3-7a1,1,0,0,1,1.838.788l-3,7A1,1,0,0,1,6,24ZM4,19.744a.992.992,0,0,1-.333-.057A5.54,5.54,0,0,1,1.8,10.43a1,1,0,0,0,.345-.9,8.147,8.147,0,0,1-.033-2.889A7.945,7.945,0,0,1,8.5.138a8.051,8.051,0,0,1,8.734,4.438,1.039,1.039,0,0,0,.743.57c6.526,1.219,8.22,10.177,2.565,13.673a1,1,0,1,1-1.078-1.684c4.144-2.515,2.884-9.179-1.878-10.029a3.009,3.009,0,0,1-2.158-1.672A6,6,0,0,0,4.086,6.967a6.136,6.136,0,0,0,.024,2.18,3,3,0,0,1-.964,2.763A3.526,3.526,0,0,0,4.333,17.8,1,1,0,0,1,4,19.744Z"/></svg>
