<?xml version="1.0" encoding="UTF-8"?>
<svg xmlns="http://www.w3.org/2000/svg" id="Layer_1" data-name="Layer 1" viewBox="0 0 24 24" width="512" height="512"><path d="M18,24a1,1,0,0,1-1-1V22a1,1,0,0,1,2,0v1A1,1,0,0,1,18,24Zm-6,0a1,1,0,0,1-1-1V22a1,1,0,0,1,2,0v1A1,1,0,0,1,12,24ZM6,24a1,1,0,0,1-1-1V22a1,1,0,0,1,2,0v1A1,1,0,0,1,6,24ZM5,19.973a1.032,1.032,0,0,1-.111-.006A5.526,5.526,0,0,1,1.8,10.43a1,1,0,0,0,.345-.9,8.147,8.147,0,0,1-.033-2.889A7.946,7.946,0,0,1,8.5.137a8.06,8.06,0,0,1,8.735,4.44,1.036,1.036,0,0,0,.742.569A7.5,7.5,0,0,1,19.4,19.39a1,1,0,0,1-.792-1.837A5.5,5.5,0,0,0,17.583,7.106a3.011,3.011,0,0,1-2.158-1.672A6,6,0,0,0,4.086,6.967,6.142,6.142,0,0,0,4.11,9.148a3.005,3.005,0,0,1-.964,2.762A3.522,3.522,0,0,0,5.11,17.979,1,1,0,0,1,5,19.973ZM15,18a1,1,0,0,1-1-1V16a1,1,0,0,1,2,0v1A1,1,0,0,1,15,18ZM9,18a1,1,0,0,1-1-1V16a1,1,0,0,1,2,0v1A1,1,0,0,1,9,18Z"/></svg>
