<?xml version="1.0" encoding="UTF-8"?>
<svg xmlns="http://www.w3.org/2000/svg" id="Layer_1" data-name="Layer 1" viewBox="0 0 24 24" width="512" height="512"><path d="M20.723,7H22a2,2,0,0,0,2-2,4,4,0,0,0-4-4H5A5.006,5.006,0,0,0,0,6v6.515a6.954,6.954,0,0,0,2.05,4.949l.95.95V19.5a3.5,3.5,0,0,0,7,0V19h5v.5a3.5,3.5,0,0,0,7,0V19h1a1,1,0,0,0,1-1V14.593a7.009,7.009,0,0,0-.922-3.472ZM2,7H8V9H2ZM8,19.5a1.5,1.5,0,0,1-3,0V19H8ZM13,17H4.414l-.95-.95A4.967,4.967,0,0,1,2,12.515V11H8a2,2,0,0,0,2-2V7A2,2,0,0,0,8,5H2.172A3,3,0,0,1,5,3H20a2,2,0,0,1,2,2H17a4,4,0,0,0-4,4Zm7.7-6H15V9a2,2,0,0,1,2-2h1.419ZM20,19.5a1.5,1.5,0,0,1-3,0V19h3ZM22,17H15V13h6.739A5,5,0,0,1,22,14.593Z"/></svg>
