<?xml version="1.0" encoding="UTF-8"?>
<svg xmlns="http://www.w3.org/2000/svg" id="Layer_1" data-name="Layer 1" viewBox="0 0 24 24" width="512" height="512"><path d="M20,16V5a3,3,0,0,1,3-3,1,1,0,0,0,0-2,5.006,5.006,0,0,0-5,5V16.279L3.158,21.226,2.1,18.051a2,2,0,0,1,1.272-2.53l.027-.009.391,1.155a2,2,0,0,0,2.541,1.25l7.74-2.648a2,2,0,0,0,1.247-2.534l-.379-1.122.377-.127a1,1,0,0,0-.64-1.9l-.376.127-.559-1.654a4.021,4.021,0,0,0-5.082-2.5L4.706,6.918a4.007,4.007,0,0,0-2.493,5.07l.55,1.629-.022.008A4,4,0,0,0,.205,18.682L1.26,21.859l-.576.192a1,1,0,0,0,.632,1.9l14.807-4.936A4.017,4.017,0,0,0,20,24C25.274,23.862,25.274,16.137,20,16ZM5.354,8.811,9.311,7.458a2,2,0,0,1,2.54,1.248l1.579,4.67h0l-7.741,2.65-1.581-4.68A2,2,0,0,1,5.354,8.811ZM20,22a2,2,0,0,1,0-4A2,2,0,0,1,20,22Z"/></svg>
