<?xml version="1.0" encoding="UTF-8"?>
<svg xmlns="http://www.w3.org/2000/svg" id="Layer_1" data-name="Layer 1" viewBox="0 0 24 24" width="512" height="512"><path d="M6,12a1,1,0,0,1-1-1C5,9.108,6.232,7,8,7s3,2.108,3,4a1,1,0,0,1-2,0c0-1.054-.679-2-1-2s-1,.946-1,2A1,1,0,0,1,6,12ZM16,7c-1.768,0-3,2.108-3,4a1,1,0,0,0,2,0c0-1.054.679-2,1-2s1,.946,1,2a1,1,0,0,0,2,0C19,9.108,17.768,7,16,7Zm8,5A12.013,12.013,0,0,1,12,24C-3.9,23.4-3.893.6,12,0A12.013,12.013,0,0,1,24,12Zm-2,0A10.011,10.011,0,0,0,12,2c-13.248.5-13.245,19.5,0,20A10.011,10.011,0,0,0,22,12Zm-5.211,2.024A15.4,15.4,0,0,1,12,15,15.4,15.4,0,0,1,7.2,14.024a1,1,0,0,0-1.052,1.518A6.836,6.836,0,0,0,12,19a6.827,6.827,0,0,0,5.842-3.458A1,1,0,0,0,16.789,14.024Z"/></svg>
