<?xml version="1.0" encoding="UTF-8"?>
<svg xmlns="http://www.w3.org/2000/svg" id="Layer_1" data-name="Layer 1" viewBox="0 0 24 24" width="512" height="512"><path d="M23.4,10.43,20.97,4.97A5.005,5.005,0,0,0,16.4,2H5A5.006,5.006,0,0,0,0,7v8a4.007,4.007,0,0,0,3,3.873V19.5a3.5,3.5,0,0,0,7,0V19h4v.5a3.5,3.5,0,0,0,7,0v-.627A4.006,4.006,0,0,0,24,15V13.273A6.936,6.936,0,0,0,23.4,10.43ZM19.142,5.782,21.017,10H14V4h2.4A3,3,0,0,1,19.142,5.782ZM8,10V4h4v6ZM5,4H6v6H2V7A3,3,0,0,1,5,4ZM8,19.5a1.5,1.5,0,0,1-3,0V19H8ZM17.5,21A1.5,1.5,0,0,1,16,19.5V19h3v.5A1.5,1.5,0,0,1,17.5,21ZM22,15a2,2,0,0,1-2,2H4a2,2,0,0,1-2-2V12H21.836A4.977,4.977,0,0,1,22,13.273Z"/></svg>
