<?xml version="1.0" encoding="UTF-8"?>
<svg xmlns="http://www.w3.org/2000/svg" id="Layer_1" data-name="Layer 1" viewBox="0 0 24 24" width="512" height="512"><path d="M10,9.5a1.5,1.5,0,0,1-3,0A1.5,1.5,0,0,1,10,9.5ZM15.5,8a1.5,1.5,0,0,0,0,3A1.5,1.5,0,0,0,15.5,8ZM24,12A12.013,12.013,0,0,0,12,0C-3.9.6-3.893,23.4,12,24A12.013,12.013,0,0,0,24,12Zm-2,0A10.011,10.011,0,0,1,12,22C-1.249,21.5-1.244,2.5,12,2A10.011,10.011,0,0,1,22,12Zm-4.254,5.666a1,1,0,0,0-.08-1.412A9.454,9.454,0,0,0,12,14a1,1,0,0,0,0,2,7.519,7.519,0,0,1,4.336,1.747,1,1,0,0,0,1.41-.081ZM5,16a2,2,0,0,0,4,0,6.571,6.571,0,0,0-1.538-3.388C6.46,11.512,4.953,15.152,5,16Z"/></svg>
