<?xml version="1.0" encoding="UTF-8"?>
<svg xmlns="http://www.w3.org/2000/svg" id="Layer_1" data-name="Layer 1" viewBox="0 0 24 24" width="512" height="512"><path d="M22.427,4.378a6.552,6.552,0,0,0,1.128-.546,1,1,0,0,0-1.1-1.668A6.508,6.508,0,0,1,20,2.931V1a1,1,0,0,0-2,0V2.931a6.526,6.526,0,0,1-2.451-.767,1,1,0,0,0-1.1,1.668,6.552,6.552,0,0,0,1.128.546,4.968,4.968,0,0,0-1.534,2.994c-.524,2.77-3.486,2.6-6.388,2.63C-2.04,9.608-2.68,23.567,7,24c10.327,0,17-6.28,17-16A4.973,4.973,0,0,0,22.427,4.378ZM7,22c-7.021-.328-6.38-10.473.642-10,3.542.151,7.836-.36,8.381-4.38A3,3,0,0,1,18,5.178c.094.917-.436,2.767,1,2.822,1.434-.054.907-1.9,1-2.816A3,3,0,0,1,22,8C22,16.636,16.252,22,7,22Z"/></svg>
