<?xml version="1.0" encoding="UTF-8"?>
<svg xmlns="http://www.w3.org/2000/svg" id="Layer_1" data-name="Layer 1" viewBox="0 0 24 24" width="512" height="512"><path d="M10,12a1,1,0,0,1-1,1H5a1,1,0,0,1,0-2H9A1,1,0,0,1,10,12Zm9-1H18V10a1,1,0,0,0-2,0v1H15a1,1,0,0,0,0,2h1v1a1,1,0,0,0,2,0V13h1A1,1,0,0,0,19,11Zm5-2v8a5.006,5.006,0,0,1-5,5H5a5.006,5.006,0,0,1-5-5V9A4.006,4.006,0,0,1,3,5.127V4A2,2,0,0,1,5,2H9a2,2,0,0,1,2,2V5h2V4a2,2,0,0,1,2-2h4a2,2,0,0,1,2,2V5.127A4.006,4.006,0,0,1,24,9ZM22,9a2,2,0,0,0-2-2,1,1,0,0,1-1-1V4H15V6a1,1,0,0,1-1,1H10A1,1,0,0,1,9,6V4H5V6A1,1,0,0,1,4,7,2,2,0,0,0,2,9v8a3,3,0,0,0,3,3H19a3,3,0,0,0,3-3Z"/></svg>
