<?xml version="1.0" encoding="UTF-8"?>
<svg xmlns="http://www.w3.org/2000/svg" id="Layer_1" data-name="Layer 1" viewBox="0 0 24 24" width="512" height="512"><path d="M12,20c-6.14.017-4.438-10.17,0-10C16.44,9.831,18.139,20.018,12,20Zm0-8c-1.93-.094-3.339,6.106,0,6C15.339,18.105,13.93,11.907,12,12Zm0,12C6.486,24,2,19.881,2,14.818,1.981,2.592,13.721-5.417,17.589,4.355c.905,3.763,4.787,6.352,4.411,10.463C22,19.881,17.514,24,12,24ZM12,2c-6.37.261-14.267,18.97,0,20,6.356.142,10.443-6.863,6.445-11.68a16.967,16.967,0,0,1-2.772-5.39A3.779,3.779,0,0,0,12,2Z"/></svg>
