<?xml version="1.0" encoding="UTF-8"?>
<svg xmlns="http://www.w3.org/2000/svg" id="arrow-circle-down" viewBox="0 0 24 24" width="512" height="512"><path d="M16.332,18.253l-2.885,2.835c-.108.108-.255.245-.414.389V2.522c.16.146.308.283.42.4l2.879,2.828a1,1,0,1,0,1.4-1.426L14.861,1.5c-.2-.2-.513-.486-.84-.776a3,3,0,0,0-3.976,0c-.327.289-.637.573-.834.77L6.332,4.319a1,1,0,0,0,1.4,1.426l2.885-2.834c.108-.108.255-.244.414-.389V21.477c-.16-.146-.309-.284-.42-.4L7.734,18.253a1,1,0,0,0-1.4,1.427L9.205,22.5c.2.2.513.487.84.777a2.99,2.99,0,0,0,1.982.752h.012a2.992,2.992,0,0,0,1.983-.754c.326-.289.636-.572.833-.769l2.879-2.828a1,1,0,0,0-1.4-1.427Z"/></svg>
