<?xml version="1.0" encoding="UTF-8"?>
<svg xmlns="http://www.w3.org/2000/svg" id="Layer_1" data-name="Layer 1" viewBox="0 0 24 24" width="512" height="512"><path d="M10.428,24H6a1,1,0,0,1,0-2,6.44,6.44,0,0,0,3.818-1.24,10.042,10.042,0,0,1-7.266-13.1A11.472,11.472,0,0,1,13.572,0H18a1,1,0,0,1,0,2,6.44,6.44,0,0,0-3.818,1.24,10.041,10.041,0,0,1,7.266,13.1A11.472,11.472,0,0,1,10.428,24ZM12.475,2.059A9.387,9.387,0,0,0,4.45,8.3a8.039,8.039,0,0,0,6.085,10.569,1.809,1.809,0,0,1,1.436,1.352,1.837,1.837,0,0,1-.446,1.725A9.393,9.393,0,0,0,19.551,15.7,8.04,8.04,0,0,0,13.466,5.135h0a1.809,1.809,0,0,1-1.437-1.352A1.834,1.834,0,0,1,12.475,2.059ZM12,15a3,3,0,0,1,0-6A3,3,0,0,1,12,15Zm0-4a1,1,0,0,0,0,2A1,1,0,0,0,12,11Z"/></svg>
