<?xml version="1.0" encoding="UTF-8"?>
<svg xmlns="http://www.w3.org/2000/svg" id="Layer_1" data-name="Layer 1" viewBox="0 0 24 24" width="512" height="512"><path d="M7,11a1,1,0,0,1-2,0C5,9.108,6.232,7,8,7s3,2.108,3,4a1,1,0,0,1-2,0c0-1.054-.679-2-1-2S7,9.946,7,11Zm9-4c-1.768,0-3,2.108-3,4a1,1,0,0,0,2,0c0-1.054.679-2,1-2s1,.946,1,2a1,1,0,0,0,2,0C19,9.108,17.768,7,16,7Zm-.01,7H8.009a.994.994,0,0,0-.955,1.3,5.178,5.178,0,0,0,9.9-.007A.994.994,0,0,0,15.99,14ZM24,12A12.013,12.013,0,0,1,12,24C-3.9,23.4-3.893.6,12,0A12.013,12.013,0,0,1,24,12Zm-2,0A10.011,10.011,0,0,0,12,2c-13.248.5-13.245,19.5,0,20A10.011,10.011,0,0,0,22,12Z"/></svg>
