<?xml version="1.0" encoding="UTF-8"?>
<svg xmlns="http://www.w3.org/2000/svg" id="Layer_1" data-name="Layer 1" viewBox="0 0 24 24" width="512" height="512"><path d="M21,0H18a1,1,0,0,0,0,2h2.586L17.361,5.225A13.4,13.4,0,0,0,1.418,4.141a3.1,3.1,0,0,0-1.4,2.294A3.144,3.144,0,0,0,.925,9l6.329,6.33L4.586,18H1a1,1,0,0,0,0,2H2.586L1.293,21.293a1,1,0,1,0,1.414,1.414L4,21.414V23a1,1,0,0,0,2,0V19.414l2.668-2.668L15,23.075A3.146,3.146,0,0,0,17.229,24a2.922,2.922,0,0,0,.336-.018,3.1,3.1,0,0,0,2.294-1.4A13.4,13.4,0,0,0,18.775,6.639L22,3.414V6a1,1,0,0,0,2,0V3A3,3,0,0,0,21,0ZM2.339,7.588a1.158,1.158,0,0,1-.333-.944,1.109,1.109,0,0,1,.5-.826A11.261,11.261,0,0,1,8.645,4.011a11.383,11.383,0,0,1,7.3,2.633L8.668,13.918Zm15.843,13.9a1.109,1.109,0,0,1-.826.5,1.155,1.155,0,0,1-.944-.333l-6.33-6.329,7.275-7.274A11.386,11.386,0,0,1,18.182,21.493Z"/></svg>
