<?xml version="1.0" encoding="UTF-8"?>
<svg xmlns="http://www.w3.org/2000/svg" id="Layer_1" data-name="Layer 1" viewBox="0 0 24 24" width="512" height="512"><path d="M14.4,24a2.807,2.807,0,0,1-1.671-.559L9.994,21.274,7.281,23.418a2.816,2.816,0,0,1-3.351.036A2.776,2.776,0,0,1,2.9,20.3l.946-3.276L1.165,15.105A2.821,2.821,0,0,1,2.822,10H6.254L7.3,6.606A2.835,2.835,0,0,1,12.68,6.6L13.732,10h3.433a2.821,2.821,0,0,1,1.666,5.1l-2.677,1.924.947,3.309a2.769,2.769,0,0,1-1.044,3.123A2.826,2.826,0,0,1,14.4,24Zm-4.41-5a1,1,0,0,1,.62.216l3.332,2.634a.764.764,0,0,0,.942-.018.772.772,0,0,0,.3-.919L14.038,16.9a1,1,0,0,1,.378-1.085l3.24-2.331A.821.821,0,0,0,17.165,12H13a1,1,0,0,1-.955-.7L10.772,7.2a.823.823,0,0,0-1.561.01L7.947,11.3A1,1,0,0,1,6.992,12H2.822a.822.822,0,0,0-.485,1.485l3.245,2.324a1,1,0,0,1,.379,1.09L4.809,20.884a.784.784,0,0,0,.292.948.807.807,0,0,0,.967,0l3.306-2.612A.993.993,0,0,1,9.994,19ZM20,7.146l1.481,1.089a.809.809,0,0,0,1.25-.9l-.572-1.771,1.506-1.1A.809.809,0,0,0,23.188,3H21.334l-.563-1.756a.813.813,0,0,0-1.542,0L18.666,3H16.813a.809.809,0,0,0-.478,1.463l1.506,1.1-.572,1.771a.788.788,0,0,0,.3.906.8.8,0,0,0,.953-.005Z"/></svg>
