<?xml version="1.0" encoding="UTF-8"?>
<svg xmlns="http://www.w3.org/2000/svg" id="Layer_1" data-name="Layer 1" viewBox="0 0 24 24" width="512" height="512"><path d="M23.339,7.129A2.978,2.978,0,0,0,21,6H3c-6.654,1.04-.636,9.791,2.833,11.341L4.053,22.684a1,1,0,1,0,1.9.632L7.654,18.2A12.329,12.329,0,0,0,11,18.957V23a1,1,0,0,0,2,0V18.957a12.322,12.322,0,0,0,3.345-.758l1.706,5.117a1,1,0,1,0,1.9-.632l-1.781-5.345C21.009,15.85,25.622,10.4,23.339,7.129ZM21.972,9.244C19.488,19.5,4.506,19.5,2.026,9.244A.993.993,0,0,1,3,8H21A.994.994,0,0,1,21.972,9.244ZM11,3V1a1,1,0,0,1,2,0V3A1,1,0,0,1,11,3Zm4,0V1a1,1,0,1,1,2,0V3A1,1,0,0,1,15,3ZM7,3V1A1,1,0,1,1,9,1V3A1,1,0,0,1,7,3Z"/></svg>
